<?xml version="1.0" encoding="UTF-8" standalone="no"?>
<!-- Created with Inkscape (http://www.inkscape.org/) -->
<svg id="svg2" xmlns:rdf="http://www.w3.org/1999/02/22-rdf-syntax-ns#" xmlns="http://www.w3.org/2000/svg" viewBox="0 0 115.37 102.37" height="100%" width="100%" version="1.1" xmlns:cc="http://creativecommons.org/ns#" xmlns:dc="http://purl.org/dc/elements/1.1/">
 <metadata id="metadata7">
  <rdf:RDF>
   <cc:Work rdf:about="">
    <dc:format>image/svg+xml</dc:format>
    <dc:type rdf:resource="http://purl.org/dc/dcmitype/StillImage"/>
    <dc:title/>
   </cc:Work>
  </rdf:RDF>
 </metadata>
 <g id="layer1" transform="translate(-282.315,-386.89147)">
  <g id="layer1-1" transform="translate(-26.071,-322.85453)">
   <path id="path3036" d="m331.46,730.22h23.074c11.537,0-17.306-20.474,11.537-20.474s0,20.474,11.537,20.474h23.074v20.474c0,10.237,23.074-15.356,23.074,10.237s-23.074,0-23.074,10.237v20.474h-23.074c-11.537,0,17.305,20.474-11.537,20.474-28.843,0,0-20.474-11.537-20.474h-23.07v-20.474c0-10.237-23.074,15.356-23.074-10.237s23.074,0,23.074-10.237v-20.47z" fill-rule="evenodd" stroke="#FFF" fill="#067a6b"/>
  </g>
  <g id="text3016" style="word-spacing:0px;letter-spacing:0px;text-anchor:middle;text-align:center;" font-family="Arial" font-size="12px" font-style="normal" font-stretch="normal" line-height="125%" font-variant="normal" font-weight="normal" fill="#FFF">
   <path id="path3056" d="m307.68,442.3,0-8.5898,2.959,0c0.66797,0.00001,1.1777,0.041,1.5293,0.12305,0.49218,0.11329,0.9121,0.31837,1.2598,0.61523,0.45312,0.38282,0.79199,0.87208,1.0166,1.4678,0.2246,0.59571,0.3369,1.2764,0.33691,2.042-0.00001,0.65235-0.0762,1.2305-0.22852,1.7344-0.15235,0.50391-0.34766,0.9209-0.58593,1.251-0.23829,0.33008-0.49903,0.58985-0.78223,0.7793-0.28321,0.18945-0.62501,0.33301-1.0254,0.43066-0.4004,0.0977-0.86036,0.14649-1.3799,0.14649zm1.1367-1.0137,1.834,0c0.5664,0.00001,1.0107-0.0527,1.333-0.1582,0.32226-0.10547,0.57909-0.2539,0.77051-0.44531,0.26952-0.26953,0.47948-0.63183,0.62988-1.0869,0.15038-0.45507,0.22558-1.0068,0.22558-1.6553,0-0.89843-0.14746-1.5889-0.44238-2.0713-0.29493-0.48241-0.65332-0.80565-1.0752-0.96972-0.3047-0.11718-0.79493-0.17578-1.4707-0.17579h-1.8047z"/>
   <path id="path3058" d="m320.28,441.53c-0.39063,0.33203-0.7666,0.5664-1.1279,0.70312-0.36133,0.13672-0.74902,0.20508-1.1631,0.20508-0.6836,0-1.209-0.16699-1.5762-0.50098-0.36719-0.33398-0.55079-0.76074-0.55079-1.2803,0-0.30468,0.0693-0.583,0.20801-0.83496,0.13867-0.25195,0.32031-0.4541,0.54492-0.60644,0.22461-0.15235,0.47754-0.26758,0.75879-0.34571,0.20703-0.0547,0.51953-0.10742,0.9375-0.1582,0.85156-0.10156,1.4785-0.22265,1.8809-0.36328,0.004-0.14453,0.006-0.23633,0.006-0.27539,0-0.42969-0.0996-0.73242-0.29883-0.90821-0.26953-0.23827-0.66992-0.35741-1.2012-0.35742-0.49609,0.00001-0.8623,0.0869-1.0986,0.26074-0.23633,0.17384-0.41113,0.48145-0.52441,0.92286l-1.0312-0.14063c0.0937-0.4414,0.24804-0.79785,0.46289-1.0693,0.21484-0.27147,0.52539-0.48046,0.93164-0.62695,0.40624-0.14648,0.87695-0.21972,1.4121-0.21972,0.53124,0,0.96288,0.0625,1.2949,0.1875s0.57616,0.28223,0.73242,0.47167c0.15624,0.18946,0.26562,0.42872,0.32812,0.71778,0.0352,0.17969,0.0527,0.50391,0.0527,0.97265v1.4062c-0.00001,0.98047,0.0224,1.6006,0.0674,1.8604,0.0449,0.25976,0.13379,0.50879,0.2666,0.74707h-1.1016c-0.10938-0.21875-0.17969-0.47461-0.21094-0.76758zm-0.0879-2.3555c-0.38281,0.15625-0.95703,0.28906-1.7226,0.39844-0.4336,0.0625-0.74024,0.13281-0.91993,0.21093-0.17968,0.0781-0.31836,0.19239-0.41601,0.34278-0.0977,0.15039-0.14649,0.31738-0.14649,0.50097,0,0.28126,0.10645,0.51563,0.31934,0.70313s0.52441,0.28125,0.93457,0.28125c0.40625,0,0.76758-0.0889,1.084-0.2666,0.3164-0.17774,0.54882-0.4209,0.69726-0.72949,0.11328-0.23828,0.16992-0.58985,0.16992-1.0547z"/>
   <path id="path3060" d="m325.2,441.36,0.15234,0.93164c-0.29688,0.0625-0.5625,0.0937-0.79687,0.0937-0.38282,0-0.67969-0.0606-0.89063-0.18164-0.21094-0.1211-0.35937-0.28028-0.44531-0.47754-0.0859-0.19727-0.12891-0.61231-0.12891-1.2451v-3.5801h-0.77343v-0.82031h0.77343v-1.541l1.0488-0.63281v2.1738h1.0606v0.82031h-1.0606v3.6387c0,0.30079,0.0186,0.49415,0.0557,0.58008,0.0371,0.0859,0.0976,0.1543,0.18164,0.20508,0.084,0.0508,0.2041,0.0762,0.36035,0.0762,0.11718,0,0.27148-0.0137,0.46289-0.041z"/>
   <path id="path3062" d="m330.29,441.53c-0.39063,0.33203-0.76661,0.5664-1.1279,0.70312-0.36133,0.13672-0.74903,0.20508-1.1631,0.20508-0.6836,0-1.209-0.16699-1.5762-0.50098-0.36719-0.33398-0.55078-0.76074-0.55078-1.2803,0-0.30468,0.0693-0.583,0.20801-0.83496,0.13867-0.25195,0.32031-0.4541,0.54492-0.60644,0.22461-0.15235,0.47753-0.26758,0.75879-0.34571,0.20703-0.0547,0.51953-0.10742,0.9375-0.1582,0.85156-0.10156,1.4785-0.22265,1.8809-0.36328,0.004-0.14453,0.006-0.23633,0.006-0.27539,0-0.42969-0.0996-0.73242-0.29882-0.90821-0.26954-0.23827-0.66993-0.35741-1.2012-0.35742-0.49609,0.00001-0.8623,0.0869-1.0986,0.26074-0.23633,0.17384-0.41113,0.48145-0.52441,0.92286l-1.0312-0.14063c0.0937-0.4414,0.24804-0.79785,0.46289-1.0693,0.21484-0.27147,0.52539-0.48046,0.93164-0.62695,0.40625-0.14648,0.87695-0.21972,1.4121-0.21972,0.53124,0,0.96288,0.0625,1.2949,0.1875,0.33203,0.125,0.57617,0.28223,0.73242,0.47167,0.15625,0.18946,0.26562,0.42872,0.32813,0.71778,0.0351,0.17969,0.0527,0.50391,0.0527,0.97265v1.4062c0,0.98047,0.0225,1.6006,0.0674,1.8604,0.0449,0.25976,0.13379,0.50879,0.26661,0.74707h-1.1016c-0.10938-0.21875-0.17969-0.47461-0.21093-0.76758zm-0.0879-2.3555c-0.38282,0.15625-0.95704,0.28906-1.7227,0.39844-0.4336,0.0625-0.74024,0.13281-0.91992,0.21093-0.17969,0.0781-0.31836,0.19239-0.41602,0.34278-0.0977,0.15039-0.14648,0.31738-0.14648,0.50097,0,0.28126,0.10644,0.51563,0.31933,0.70313s0.52442,0.28125,0.93457,0.28125c0.40625,0,0.76758-0.0889,1.084-0.2666,0.3164-0.17774,0.54882-0.4209,0.69726-0.72949,0.11328-0.23828,0.16992-0.58985,0.16993-1.0547z"/>
   <path id="path3064" d="m338.82,442.3-3.3281-8.5898,1.2305,0,2.2324,6.2402c0.17969,0.5,0.33008,0.96875,0.45117,1.4062,0.13281-0.46875,0.28711-0.9375,0.46289-1.4062l2.3203-6.2402h1.1602l-3.3633,8.5898z"/>
   <path id="path3066" d="m344.25,434.92,0-1.2129,1.0547,0,0,1.2129zm0,7.377,0-6.2227,1.0547,0,0,6.2227z"/>
   <path id="path3068" d="m351.18,440.3,1.0898,0.13477c-0.17188,0.63672-0.49024,1.1309-0.95508,1.4824-0.46485,0.35156-1.0586,0.52734-1.7812,0.52734-0.91016,0-1.6318-0.28027-2.165-0.84082-0.5332-0.56054-0.7998-1.3467-0.7998-2.3584,0-1.0469,0.26953-1.8594,0.80859-2.4375,0.53906-0.57812,1.2383-0.86718,2.0977-0.86718,0.83203,0,1.5117,0.2832,2.0391,0.8496,0.52734,0.56642,0.79101,1.3633,0.79102,2.3906-0.00001,0.0625-0.002,0.15625-0.006,0.28125h-4.6406c0.0391,0.6836,0.23242,1.207,0.58008,1.5703,0.34766,0.36328,0.78125,0.54492,1.3008,0.54492,0.38672,0,0.7168-0.10156,0.99024-0.30468,0.27343-0.20313,0.49023-0.52735,0.65039-0.97266zm-3.4629-1.7051,3.4746,0c-0.0469-0.52343-0.1797-0.91601-0.39844-1.1777-0.33594-0.40625-0.77149-0.60937-1.3066-0.60938-0.48438,0.00001-0.89161,0.16212-1.2217,0.48633-0.33008,0.32422-0.5127,0.75782-0.54785,1.3008z"/>
   <path id="path3070" d="m354.75,442.3-1.9043-6.2227,1.0898,0,0.99024,3.5918,0.36914,1.3359c0.0156-0.0664,0.12304-0.49413,0.32226-1.2832l0.99024-3.6445h1.084l0.93164,3.6094,0.31055,1.1894,0.35742-1.2012,1.0664-3.5977h1.0254l-1.9453,6.2227h-1.0957l-0.99023-3.7266-0.24024-1.0605-1.2598,4.7871z"/>
   <path id="path3072" d="m366.53,440.3,1.0898,0.13477c-0.17188,0.63672-0.49024,1.1309-0.95507,1.4824-0.46485,0.35156-1.0586,0.52734-1.7812,0.52734-0.91016,0-1.6318-0.28027-2.165-0.84082-0.53321-0.56054-0.79981-1.3467-0.79981-2.3584,0-1.0469,0.26953-1.8594,0.8086-2.4375,0.53906-0.57812,1.2383-0.86718,2.0976-0.86718,0.83203,0,1.5117,0.2832,2.0391,0.8496,0.52734,0.56642,0.79101,1.3633,0.79102,2.3906-0.00001,0.0625-0.002,0.15625-0.006,0.28125h-4.6406c0.0391,0.6836,0.23242,1.207,0.58007,1.5703,0.34766,0.36328,0.78125,0.54492,1.3008,0.54492,0.38672,0,0.7168-0.10156,0.99024-0.30468,0.27343-0.20313,0.49023-0.52735,0.65039-0.97266zm-3.4629-1.7051,3.4746,0c-0.0469-0.52343-0.17969-0.91601-0.39844-1.1777-0.33594-0.40625-0.77149-0.60937-1.3066-0.60938-0.48438,0.00001-0.8916,0.16212-1.2217,0.48633-0.33008,0.32422-0.5127,0.75782-0.54785,1.3008z"/>
   <path id="path3074" d="m368.94,442.3,0-6.2227,0.94922,0,0,0.94336c0.24219-0.4414,0.46582-0.73242,0.6709-0.87305,0.20508-0.14062,0.43066-0.21093,0.67676-0.21093,0.35546,0,0.71679,0.11328,1.084,0.33984l-0.36328,0.97851c-0.25781-0.15233-0.51563-0.22851-0.77344-0.22851-0.23047,0-0.4375,0.0693-0.62109,0.20801-0.1836,0.13867-0.31446,0.33106-0.39258,0.57715-0.11719,0.375-0.17578,0.78516-0.17578,1.2305v3.2578z"/>
  </g>
 </g>
</svg>
