<?xml version="1.0" encoding="UTF-8" standalone="no"?>
<!-- Created with Inkscape (http://www.inkscape.org/) -->
<svg id="svg2319" xmlns:rdf="http://www.w3.org/1999/02/22-rdf-syntax-ns#" xmlns="http://www.w3.org/2000/svg" viewBox="0 0 121 121" version="1.0" xmlns:cc="http://creativecommons.org/ns#" xmlns:dc="http://purl.org/dc/elements/1.1/">
 <title id="title2822">Gear</title>
 <defs id="defs2321"></defs>
 <g id="layer1" transform="translate(-153.03491,-268.95006)">
  <g id="Capa_x0020_1" fill-rule="evenodd" transform="matrix(39.803439,0,0,39.803439,63.558407,116.51139)">
   <path id="path83" d="M74.031,0.0625l-7.625,13.376c-1.948-0.254-3.952-0.376-5.968-0.376-2.281,0-4.528,0.147-6.719,0.469l-8.469-13.062c-4.32,1.1294-8.454,2.7378-12.344,4.75l2.656,15.187c-3.574,2.316-6.813,5.12-9.624,8.313l-14.813-4.5c-2.5493,3.609-4.7344,7.491-6.4688,11.625l11.688,9.906c-1.241,4.003-1.94,8.239-2.063,12.625l-14.218,6.187c0.35144,4.527,1.1957,8.929,2.4687,13.126l15.25-0.032c1.644,3.984,3.823,7.697,6.438,11.032l-6.938,13.972c3.091,3.17,6.508,6,10.219,8.43l11.688-9.9c3.713,1.95,7.719,3.4,11.937,4.28l3.563,15.19c1.898,0.18,3.804,0.28,5.75,0.28,2.519,0,4.999-0.17,7.437-0.47l2.656-15.19c4.199-0.94,8.162-2.45,11.844-4.47l12.406,9.35c3.641-2.54,6.999-5.46,9.999-8.72l-7.655-13.378c2.559-3.376,4.705-7.111,6.285-11.124l15.43-0.876c1.16-4.227,1.87-8.646,2.1-13.187l-14.35-5.281c-0.19-4.379-1-8.579-2.31-12.563l11.28-10.719c-1.84-4.079-4.13-7.929-6.78-11.468l-14.342,5.281c-2.863-3.143-6.136-5.869-9.75-8.125l1.812-15.531c-3.941-1.9-8.114-3.3984-12.469-4.4063zm-13.531,52.626c4.313,0,7.812,3.499,7.812,7.812s-3.499,7.812-7.812,7.812-7.812-3.499-7.812-7.812,3.499-7.812,7.812-7.812z" transform="matrix(0.02512346,0,0,0.02512346,2.2479591,3.8297864)" stroke="#dededd" stroke-width="0.05735795000000000" fill="#067a6b"/>
   <g id="text3851" style="letter-spacing:0px;word-spacing:0px;" font-weight="normal" font-size="0.30148152px" font-style="normal" font-stretch="normal" line-height="125%" font-variant="normal" font-family="Arial" fill="#FFF">
    <path id="path3862" style="" d="m3.2949,4.9735,0-0.21581,0.029294,0,0.11335,0.16944,0-0.16944,0.027381,0,0,0.21581-0.029294,0-0.11335-0.16958,0,0.16958z"/>
    <path id="path3864" style="" d="m3.6167,4.9232,0.027381,0.00339c-0.00432,0.015997-0.012316,0.028411-0.023995,0.037244-0.011679,0.00883-0.026596,0.013249-0.044751,0.013249-0.022866,0-0.040998-0.00704-0.054393-0.021124-0.013396-0.014083-0.020094-0.033833-0.020094-0.059251,0-0.026301,0.00677-0.046714,0.020315-0.061238,0.013543-0.014524,0.03111-0.021787,0.0527-0.021787,0.020903,1E-7,0.03798,0.00712,0.051228,0.021345,0.013248,0.01423,0.019873,0.03425,0.019873,0.060061-1E-7,0.00157-0.0000492,0.00393-0.0001472,0.00707h-0.11659c0.0009813,0.017174,0.00584,0.030325,0.014574,0.039452,0.00873,0.00913,0.019628,0.01369,0.03268,0.01369,0.00972,0,0.018008-0.00255,0.024878-0.00765s0.012316-0.013249,0.01634-0.024437zm-0.087-0.042837,0.087294,0c-0.00118-0.013151-0.00451-0.023013-0.01001-0.029589-0.00844-0.010206-0.019382-0.015309-0.032827-0.01531-0.012169,2E-7-0.0224,0.00407-0.030693,0.012218-0.00829,0.00815-0.012881,0.019039-0.013764,0.03268z"/>
    <path id="path3866" style="" d="m3.78,4.9735,0-0.022964c-0.012169,0.017665-0.028706,0.026497-0.049609,0.026497-0.00922,0-0.017837-0.00177-0.025835-0.0053-0.008-0.00353-0.013936-0.00797-0.017812-0.013322-0.00388-0.00535-0.0066-0.011899-0.00817-0.019652-0.00108-0.0052-0.00162-0.013445-0.00162-0.024731v-0.096863h0.026497v0.086705c0,0.013838,0.0005397,0.023161,0.00162,0.02797,0.00167,0.00697,0.0052,0.012439,0.010599,0.016414,0.0054,0.00397,0.012071,0.00596,0.02002,0.00596,0.00795,0,0.015408-0.00204,0.022376-0.00611,0.00697-0.00407,0.011899-0.00962,0.014794-0.016635,0.0029-0.00702,0.00434-0.017199,0.00434-0.030546v-0.083761h0.026497v0.15633z"/>
    <path id="path3868" style="" d="m3.8451,4.9735,0-0.15633,0.023848,0,0,0.0237c0.00608-0.011089,0.011703-0.018401,0.016855-0.021934,0.00515-0.00353,0.01082-0.0053,0.017003-0.0053,0.00893,1E-7,0.018008,0.00285,0.027233,0.00854l-0.00913,0.024584c-0.00648-0.00383-0.012954-0.00574-0.019431-0.00574-0.00579,2E-7-0.010992,0.00174-0.015604,0.00523-0.00461,0.00348-0.0079,0.00832-0.00986,0.0145-0.00294,0.00942-0.00442,0.019726-0.00442,0.030914v0.081847z"/>
    <path id="path3870" style="" d="m3.9362,4.8954c0-0.028951,0.00805-0.050394,0.024142-0.06433,0.013445-0.01158,0.029834-0.01737,0.049167-0.017371,0.021492,1E-7,0.039059,0.00704,0.0527,0.021124,0.013641,0.014083,0.020462,0.033539,0.020462,0.058368-2E-7,0.020118-0.00302,0.035943-0.00905,0.047474-0.00604,0.011531-0.014819,0.020486-0.02635,0.026865-0.011531,0.00638-0.024118,0.00957-0.037759,0.00957-0.021885,0-0.039574-0.00702-0.053068-0.021051-0.013494-0.014034-0.020241-0.03425-0.020241-0.06065zm0.027233,0c-1E-7,0.02002,0.00437,0.035011,0.013102,0.044972,0.00873,0.00996,0.019726,0.014942,0.032974,0.014942,0.013151,0,0.024093-0.00501,0.032827-0.015015,0.00873-0.01001,0.013101-0.025271,0.013101-0.045782-1E-7-0.019333-0.00439-0.03398-0.013175-0.043941-0.00878-0.00996-0.019701-0.014941-0.032754-0.014942-0.013249,2E-7-0.02424,0.00496-0.032974,0.014868-0.00873,0.00991-0.013102,0.024878-0.013102,0.044898z"/>
    <path id="path3872" style="" d="m4.1139,4.9735,0-0.15633,0.023848,0,0,0.022228c0.011482-0.017174,0.028068-0.025761,0.049756-0.025761,0.00942,1E-7,0.018082,0.00169,0.025982,0.00508s0.013813,0.00783,0.017739,0.013322c0.00393,0.0055,0.00667,0.012022,0.00824,0.019579,0.0009812,0.00491,0.00147,0.013494,0.00147,0.025761v0.096127h-0.026497v-0.095096c-1E-7-0.010795-0.00103-0.018867-0.00309-0.024216-0.00206-0.00535-0.00572-0.00962-0.010967-0.012807-0.00525-0.00319-0.011409-0.00478-0.018474-0.00478-0.011286,1E-7-0.021026,0.00358-0.029221,0.010746-0.00819,0.00716-0.012292,0.020756-0.012292,0.040777v0.08538z"/>
   </g>
   <g id="text3855" style="letter-spacing:0px;word-spacing:0px;" font-weight="normal" font-size="0.30148152px" font-style="normal" font-stretch="normal" line-height="125%" font-variant="normal" font-family="Arial" fill="#FFF">
    <path id="path3875" style="" d="m3.2995,5.9792,0-0.21581,0.081406,0c0.014328,2E-7,0.025271,0.0006872,0.032827,0.00206,0.010599,0.00177,0.01948,0.00513,0.026645,0.010084,0.00716,0.00496,0.01293,0.0119,0.017297,0.02083,0.00437,0.00893,0.00655,0.018745,0.00655,0.029442-1E-7,0.018352-0.00584,0.033882-0.017518,0.046591-0.011679,0.012709-0.032778,0.019063-0.063299,0.019063h-0.05535v0.087736zm0.028558-0.1132,0.055792,0c0.01845,1E-7,0.031551-0.00343,0.039305-0.010305,0.00775-0.00687,0.011629-0.016536,0.011629-0.029-2E-7-0.00903-0.00228-0.016757-0.00685-0.023185-0.00456-0.00643-0.010574-0.010672-0.018033-0.012734-0.00481-0.00128-0.013691-0.00191-0.026645-0.00191h-0.055203z"/>
    <path id="path3877" style="" d="m3.4972,5.9792,0-0.15633,0.023848,0,0,0.0237c0.00608-0.011089,0.011703-0.018401,0.016855-0.021934,0.00515-0.00353,0.01082-0.0053,0.017002-0.0053,0.00893,1E-7,0.018008,0.00285,0.027233,0.00854l-0.00913,0.024584c-0.00648-0.00383-0.012954-0.00574-0.019431-0.00574-0.00579,1E-7-0.010992,0.00174-0.015604,0.00523-0.00461,0.00348-0.0079,0.00832-0.00986,0.0145-0.00294,0.00942-0.00442,0.019726-0.00442,0.030914v0.081847z"/>
    <path id="path3879" style="" d="m3.5883,5.901c0-0.028951,0.00805-0.050394,0.024142-0.06433,0.013445-0.01158,0.029834-0.01737,0.049167-0.017371,0.021492,1E-7,0.039059,0.00704,0.0527,0.021124,0.013641,0.014083,0.020462,0.033539,0.020462,0.058368-1E-7,0.020118-0.00302,0.035943-0.00905,0.047474-0.00604,0.011531-0.014819,0.020486-0.02635,0.026865-0.011531,0.00638-0.024118,0.00957-0.037759,0.00957-0.021885,0-0.039574-0.00702-0.053068-0.021051-0.013494-0.014034-0.020241-0.03425-0.020241-0.06065zm0.027233,0c0,0.02002,0.00437,0.035011,0.013101,0.044972,0.00873,0.00996,0.019726,0.014942,0.032975,0.014942,0.01315,0,0.024093-0.005,0.032827-0.015015,0.00873-0.01001,0.013101-0.025271,0.013102-0.045782-1E-7-0.019333-0.00439-0.03398-0.013175-0.043941-0.00878-0.00996-0.019701-0.014941-0.032754-0.014942-0.013249,2E-7-0.02424,0.00496-0.032975,0.014868-0.00873,0.00991-0.013101,0.024878-0.013101,0.044898z"/>
    <path id="path3881" style="" d="m3.7723,5.9792,0-0.13573-0.023406,0,0-0.020609,0.023406,0,0-0.016634c0-0.010501,0.0009323-0.018303,0.0028-0.023406,0.00255-0.00687,0.00704-0.012439,0.013469-0.016708,0.00643-0.00427,0.015432-0.0064,0.027013-0.0064,0.00746,2E-7,0.015702,0.0008835,0.024731,0.00265l-0.00397,0.023112c-0.0055-0.0009812-0.010697-0.00147-0.015604-0.00147-0.00805,2E-7-0.013739,0.00172-0.017076,0.00515-0.00334,0.00344-0.00501,0.00986-0.00501,0.019284v0.014426h0.030472v0.020609h-0.030472v0.13573z"/>
    <path id="path3883" style="" d="m3.8498,5.7939,0-0.030472,0.026497,0,0,0.030472zm0,0.18533,0-0.15633,0.026497,0,0,0.15633z"/>
    <path id="path3885" style="" d="m3.9162,5.9792,0-0.21581,0.026497,0,0,0.21581z"/>
    <path id="path3887" style="" d="m4.0909,5.9289,0.027381,0.00339c-0.00432,0.015997-0.012316,0.028411-0.023995,0.037244-0.011679,0.00883-0.026596,0.013249-0.044751,0.013249-0.022866,0-0.040997-0.00704-0.054393-0.021124-0.013396-0.014083-0.020094-0.033833-0.020094-0.059251,0-0.026301,0.00677-0.046714,0.020315-0.061238,0.013543-0.014524,0.03111-0.021787,0.0527-0.021787,0.020903,1E-7,0.03798,0.00712,0.051228,0.021345,0.013249,0.01423,0.019873,0.03425,0.019873,0.060061-2E-7,0.00157-0.0000493,0.00393-0.0001473,0.00707h-0.11659c0.0009813,0.017174,0.00584,0.030325,0.014574,0.039452,0.00873,0.00913,0.019628,0.01369,0.03268,0.01369,0.00972,0,0.018008-0.00255,0.024878-0.00765s0.012316-0.013249,0.01634-0.024437zm-0.087-0.042837,0.087294,0c-0.00118-0.013151-0.00451-0.023013-0.01001-0.029589-0.00844-0.010206-0.019382-0.015309-0.032827-0.01531-0.012169,1E-7-0.0224,0.00407-0.030693,0.012218-0.00829,0.00815-0.012881,0.019039-0.013764,0.03268z"/>
    <path id="path3889" style="" d="m4.1514,5.9792,0-0.15633,0.023848,0,0,0.0237c0.00608-0.011089,0.011703-0.018401,0.016855-0.021934,0.00515-0.00353,0.01082-0.0053,0.017003-0.0053,0.00893,1E-7,0.018008,0.00285,0.027233,0.00854l-0.00913,0.024584c-0.00648-0.00383-0.012954-0.00574-0.019431-0.00574-0.00579,1E-7-0.010992,0.00174-0.015604,0.00523-0.00461,0.00348-0.0079,0.00832-0.00986,0.0145-0.00294,0.00942-0.00442,0.019726-0.00442,0.030914v0.081847z"/>
   </g>
  </g>
 </g>
 <metadata id="metadata3227">
  <rdf:RDF>
   <cc:Work>
    <dc:format>image/svg+xml</dc:format>
    <dc:type rdf:resource="http://purl.org/dc/dcmitype/StillImage"/>
    <cc:license rdf:resource="http://creativecommons.org/licenses/publicdomain/"/>
    <dc:publisher>
     <cc:Agent rdf:about="http://openclipart.org/">
      <dc:title>Openclipart</dc:title>
     </cc:Agent>
    </dc:publisher>
    <dc:title>Gear</dc:title>
    <dc:date>2014-03-05T09:46:58</dc:date>
    <dc:description>a simple grey gear</dc:description>
    <dc:source>https://openclipart.org/detail/191594/simple-gear-by-tavin-191594</dc:source>
    <dc:creator>
     <cc:Agent>
      <dc:title>Tavin</dc:title>
     </cc:Agent>
    </dc:creator>
    <dc:subject>
     <rdf:Bag>
      <rdf:li>gear</rdf:li>
      <rdf:li>machine</rdf:li>
      <rdf:li>outline</rdf:li>
      <rdf:li>zahnrad</rdf:li>
     </rdf:Bag>
    </dc:subject>
   </cc:Work>
   <cc:License rdf:about="http://creativecommons.org/licenses/publicdomain/">
    <cc:permits rdf:resource="http://creativecommons.org/ns#Reproduction"/>
    <cc:permits rdf:resource="http://creativecommons.org/ns#Distribution"/>
    <cc:permits rdf:resource="http://creativecommons.org/ns#DerivativeWorks"/>
   </cc:License>
  </rdf:RDF>
 </metadata>
</svg>
