<?xml version="1.0" encoding="UTF-8" standalone="no"?>
<!-- Created with Inkscape (http://www.inkscape.org/) -->
<svg id="svg2319" xmlns:rdf="http://www.w3.org/1999/02/22-rdf-syntax-ns#" xmlns="http://www.w3.org/2000/svg" viewBox="0 0 121 121" height="100%" width="100%" version="1.0" xmlns:cc="http://creativecommons.org/ns#" xmlns:dc="http://purl.org/dc/elements/1.1/">
 <title id="title2822">Gear</title>
 <g id="layer1" transform="translate(-153.03491,-268.95006)">
  <g id="Capa_x0020_1" fill-rule="evenodd" fill="#1184a7" transform="matrix(39.803439,0,0,39.803439,63.558407,116.51139)">
   <path id="path83" d="M74.031,0.0625l-7.625,13.376c-1.948-0.254-3.952-0.376-5.968-0.376-2.281,0-4.528,0.147-6.719,0.469l-8.469-13.062c-4.32,1.1294-8.454,2.7378-12.344,4.75l2.656,15.187c-3.574,2.316-6.813,5.12-9.624,8.313l-14.813-4.5c-2.5493,3.609-4.7344,7.491-6.4688,11.625l11.688,9.906c-1.241,4.003-1.94,8.239-2.063,12.625l-14.218,6.187c0.35144,4.527,1.1957,8.929,2.4687,13.126l15.25-0.032c1.644,3.984,3.823,7.697,6.438,11.032l-6.938,13.972c3.091,3.17,6.508,6,10.219,8.43l11.688-9.9c3.713,1.95,7.719,3.4,11.937,4.28l3.563,15.19c1.898,0.18,3.804,0.28,5.75,0.28,2.519,0,4.999-0.17,7.437-0.47l2.656-15.19c4.199-0.94,8.162-2.45,11.844-4.47l12.406,9.35c3.641-2.54,6.999-5.46,9.999-8.72l-7.655-13.378c2.559-3.376,4.705-7.111,6.285-11.124l15.43-0.876c1.16-4.227,1.87-8.646,2.1-13.187l-14.35-5.281c-0.19-4.379-1-8.579-2.31-12.563l11.28-10.719c-1.84-4.079-4.13-7.929-6.78-11.468l-14.342,5.281c-2.863-3.143-6.136-5.869-9.75-8.125l1.812-15.531c-3.941-1.9-8.114-3.3984-12.469-4.4063zm-13.531,52.626c4.313,0,7.812,3.499,7.812,7.812s-3.499,7.812-7.812,7.812-7.812-3.499-7.812-7.812,3.499-7.812,7.812-7.812z" transform="matrix(0.02512346,0,0,0.02512346,2.2479591,3.8297864)" stroke="#dededd" stroke-width="0.05735795000000000"/>
   <g id="text3851" style="word-spacing:0px;letter-spacing:0px;" line-height="125%" font-family="Arial" font-size="0.30148152px" font-style="normal" font-stretch="normal" font-variant="normal" font-weight="normal">
    <path id="path3862" d="m3.2949,4.9735,0-0.21581,0.029294,0,0.11335,0.16944,0-0.16944,0.027381,0,0,0.21581-0.029294,0-0.11335-0.16958,0,0.16958z"/>
    <path id="path3864" d="m3.6167,4.9232,0.027381,0.00339c-0.00432,0.015997-0.012316,0.028411-0.023995,0.037244-0.011679,0.00883-0.026596,0.013249-0.044751,0.013249-0.022866,0-0.040998-0.00704-0.054393-0.021124-0.013396-0.014083-0.020094-0.033833-0.020094-0.059251,0-0.026301,0.00677-0.046714,0.020315-0.061238,0.013543-0.014524,0.03111-0.021787,0.0527-0.021787,0.020903,1E-7,0.03798,0.00712,0.051228,0.021345,0.013248,0.01423,0.019873,0.03425,0.019873,0.060061-1E-7,0.00157-0.0000492,0.00393-0.0001472,0.00707h-0.11659c0.0009813,0.017174,0.00584,0.030325,0.014574,0.039452,0.00873,0.00913,0.019628,0.01369,0.03268,0.01369,0.00972,0,0.018008-0.00255,0.024878-0.00765s0.012316-0.013249,0.01634-0.024437zm-0.087-0.042837,0.087294,0c-0.00118-0.013151-0.00451-0.023013-0.01001-0.029589-0.00844-0.010206-0.019382-0.015309-0.032827-0.01531-0.012169,2E-7-0.0224,0.00407-0.030693,0.012218-0.00829,0.00815-0.012881,0.019039-0.013764,0.03268z"/>
    <path id="path3866" d="m3.78,4.9735,0-0.022964c-0.012169,0.017665-0.028706,0.026497-0.049609,0.026497-0.00922,0-0.017837-0.00177-0.025835-0.0053-0.008-0.00353-0.013936-0.00797-0.017812-0.013322-0.00388-0.00535-0.0066-0.011899-0.00817-0.019652-0.00108-0.0052-0.00162-0.013445-0.00162-0.024731v-0.096863h0.026497v0.086705c0,0.013838,0.0005397,0.023161,0.00162,0.02797,0.00167,0.00697,0.0052,0.012439,0.010599,0.016414,0.0054,0.00397,0.012071,0.00596,0.02002,0.00596,0.00795,0,0.015408-0.00204,0.022376-0.00611,0.00697-0.00407,0.011899-0.00962,0.014794-0.016635,0.0029-0.00702,0.00434-0.017199,0.00434-0.030546v-0.083761h0.026497v0.15633z"/>
    <path id="path3868" d="m3.8451,4.9735,0-0.15633,0.023848,0,0,0.0237c0.00608-0.011089,0.011703-0.018401,0.016855-0.021934,0.00515-0.00353,0.01082-0.0053,0.017003-0.0053,0.00893,1E-7,0.018008,0.00285,0.027233,0.00854l-0.00913,0.024584c-0.00648-0.00383-0.012954-0.00574-0.019431-0.00574-0.00579,2E-7-0.010992,0.00174-0.015604,0.00523-0.00461,0.00348-0.0079,0.00832-0.00986,0.0145-0.00294,0.00942-0.00442,0.019726-0.00442,0.030914v0.081847z"/>
    <path id="path3870" d="m3.9362,4.8954c0-0.028951,0.00805-0.050394,0.024142-0.06433,0.013445-0.01158,0.029834-0.01737,0.049167-0.017371,0.021492,1E-7,0.039059,0.00704,0.0527,0.021124,0.013641,0.014083,0.020462,0.033539,0.020462,0.058368-2E-7,0.020118-0.00302,0.035943-0.00905,0.047474-0.00604,0.011531-0.014819,0.020486-0.02635,0.026865-0.011531,0.00638-0.024118,0.00957-0.037759,0.00957-0.021885,0-0.039574-0.00702-0.053068-0.021051-0.013494-0.014034-0.020241-0.03425-0.020241-0.06065zm0.027233,0c-1E-7,0.02002,0.00437,0.035011,0.013102,0.044972,0.00873,0.00996,0.019726,0.014942,0.032974,0.014942,0.013151,0,0.024093-0.00501,0.032827-0.015015,0.00873-0.01001,0.013101-0.025271,0.013101-0.045782-1E-7-0.019333-0.00439-0.03398-0.013175-0.043941-0.00878-0.00996-0.019701-0.014941-0.032754-0.014942-0.013249,2E-7-0.02424,0.00496-0.032974,0.014868-0.00873,0.00991-0.013102,0.024878-0.013102,0.044898z"/>
    <path id="path3872" d="m4.1139,4.9735,0-0.15633,0.023848,0,0,0.022228c0.011482-0.017174,0.028068-0.025761,0.049756-0.025761,0.00942,1E-7,0.018082,0.00169,0.025982,0.00508s0.013813,0.00783,0.017739,0.013322c0.00393,0.0055,0.00667,0.012022,0.00824,0.019579,0.0009812,0.00491,0.00147,0.013494,0.00147,0.025761v0.096127h-0.026497v-0.095096c-1E-7-0.010795-0.00103-0.018867-0.00309-0.024216-0.00206-0.00535-0.00572-0.00962-0.010967-0.012807-0.00525-0.00319-0.011409-0.00478-0.018474-0.00478-0.011286,1E-7-0.021026,0.00358-0.029221,0.010746-0.00819,0.00716-0.012292,0.020756-0.012292,0.040777v0.08538z"/>
   </g>
   <g id="text3855" style="word-spacing:0px;letter-spacing:0px;" line-height="125%" font-family="Arial" font-size="0.30148152px" font-style="normal" font-stretch="normal" font-variant="normal" font-weight="normal">
    <path id="path3875" d="m3.2995,5.9792,0-0.21581,0.081406,0c0.014328,2E-7,0.025271,0.0006872,0.032827,0.00206,0.010599,0.00177,0.01948,0.00513,0.026645,0.010084,0.00716,0.00496,0.01293,0.0119,0.017297,0.02083,0.00437,0.00893,0.00655,0.018745,0.00655,0.029442-1E-7,0.018352-0.00584,0.033882-0.017518,0.046591-0.011679,0.012709-0.032778,0.019063-0.063299,0.019063h-0.05535v0.087736zm0.028558-0.1132,0.055792,0c0.01845,1E-7,0.031551-0.00343,0.039305-0.010305,0.00775-0.00687,0.011629-0.016536,0.011629-0.029-2E-7-0.00903-0.00228-0.016757-0.00685-0.023185-0.00456-0.00643-0.010574-0.010672-0.018033-0.012734-0.00481-0.00128-0.013691-0.00191-0.026645-0.00191h-0.055203z"/>
    <path id="path3877" d="m3.4972,5.9792,0-0.15633,0.023848,0,0,0.0237c0.00608-0.011089,0.011703-0.018401,0.016855-0.021934,0.00515-0.00353,0.01082-0.0053,0.017002-0.0053,0.00893,1E-7,0.018008,0.00285,0.027233,0.00854l-0.00913,0.024584c-0.00648-0.00383-0.012954-0.00574-0.019431-0.00574-0.00579,1E-7-0.010992,0.00174-0.015604,0.00523-0.00461,0.00348-0.0079,0.00832-0.00986,0.0145-0.00294,0.00942-0.00442,0.019726-0.00442,0.030914v0.081847z"/>
    <path id="path3879" d="m3.5883,5.901c0-0.028951,0.00805-0.050394,0.024142-0.06433,0.013445-0.01158,0.029834-0.01737,0.049167-0.017371,0.021492,1E-7,0.039059,0.00704,0.0527,0.021124,0.013641,0.014083,0.020462,0.033539,0.020462,0.058368-1E-7,0.020118-0.00302,0.035943-0.00905,0.047474-0.00604,0.011531-0.014819,0.020486-0.02635,0.026865-0.011531,0.00638-0.024118,0.00957-0.037759,0.00957-0.021885,0-0.039574-0.00702-0.053068-0.021051-0.013494-0.014034-0.020241-0.03425-0.020241-0.06065zm0.027233,0c0,0.02002,0.00437,0.035011,0.013101,0.044972,0.00873,0.00996,0.019726,0.014942,0.032975,0.014942,0.01315,0,0.024093-0.005,0.032827-0.015015,0.00873-0.01001,0.013101-0.025271,0.013102-0.045782-1E-7-0.019333-0.00439-0.03398-0.013175-0.043941-0.00878-0.00996-0.019701-0.014941-0.032754-0.014942-0.013249,2E-7-0.02424,0.00496-0.032975,0.014868-0.00873,0.00991-0.013101,0.024878-0.013101,0.044898z"/>
    <path id="path3881" d="m3.7723,5.9792,0-0.13573-0.023406,0,0-0.020609,0.023406,0,0-0.016634c0-0.010501,0.0009323-0.018303,0.0028-0.023406,0.00255-0.00687,0.00704-0.012439,0.013469-0.016708,0.00643-0.00427,0.015432-0.0064,0.027013-0.0064,0.00746,2E-7,0.015702,0.0008835,0.024731,0.00265l-0.00397,0.023112c-0.0055-0.0009812-0.010697-0.00147-0.015604-0.00147-0.00805,2E-7-0.013739,0.00172-0.017076,0.00515-0.00334,0.00344-0.00501,0.00986-0.00501,0.019284v0.014426h0.030472v0.020609h-0.030472v0.13573z"/>
    <path id="path3883" d="m3.8498,5.7939,0-0.030472,0.026497,0,0,0.030472zm0,0.18533,0-0.15633,0.026497,0,0,0.15633z"/>
    <path id="path3885" d="m3.9162,5.9792,0-0.21581,0.026497,0,0,0.21581z"/>
    <path id="path3887" d="m4.0909,5.9289,0.027381,0.00339c-0.00432,0.015997-0.012316,0.028411-0.023995,0.037244-0.011679,0.00883-0.026596,0.013249-0.044751,0.013249-0.022866,0-0.040997-0.00704-0.054393-0.021124-0.013396-0.014083-0.020094-0.033833-0.020094-0.059251,0-0.026301,0.00677-0.046714,0.020315-0.061238,0.013543-0.014524,0.03111-0.021787,0.0527-0.021787,0.020903,1E-7,0.03798,0.00712,0.051228,0.021345,0.013249,0.01423,0.019873,0.03425,0.019873,0.060061-2E-7,0.00157-0.0000493,0.00393-0.0001473,0.00707h-0.11659c0.0009813,0.017174,0.00584,0.030325,0.014574,0.039452,0.00873,0.00913,0.019628,0.01369,0.03268,0.01369,0.00972,0,0.018008-0.00255,0.024878-0.00765s0.012316-0.013249,0.01634-0.024437zm-0.087-0.042837,0.087294,0c-0.00118-0.013151-0.00451-0.023013-0.01001-0.029589-0.00844-0.010206-0.019382-0.015309-0.032827-0.01531-0.012169,1E-7-0.0224,0.00407-0.030693,0.012218-0.00829,0.00815-0.012881,0.019039-0.013764,0.03268z"/>
    <path id="path3889" d="m4.1514,5.9792,0-0.15633,0.023848,0,0,0.0237c0.00608-0.011089,0.011703-0.018401,0.016855-0.021934,0.00515-0.00353,0.01082-0.0053,0.017003-0.0053,0.00893,1E-7,0.018008,0.00285,0.027233,0.00854l-0.00913,0.024584c-0.00648-0.00383-0.012954-0.00574-0.019431-0.00574-0.00579,1E-7-0.010992,0.00174-0.015604,0.00523-0.00461,0.00348-0.0079,0.00832-0.00986,0.0145-0.00294,0.00942-0.00442,0.019726-0.00442,0.030914v0.081847z"/>
   </g>
  </g>
  <g id="text4153" style="letter-spacing:0px;word-spacing:0px;" font-family="sans-serif" font-size="12.5px" line-height="125%" font-style="normal" font-weight="normal" fill="#FFF">
   <path id="path4175" style="" d="m189.29,305.98,1.2329,0,0,3.7354,4.48,0,0-3.7354,1.2329,0,0,9.1126-1.2329,0,0-4.3396-4.48,0,0,4.3396-1.2329,0,0-9.1126z"/>
   <path id="path4177" style="" d="m201.75,311.66q-1.3611,0-1.886,0.31128t-0.5249,1.062q0,0.59814,0.39062,0.95215,0.39673,0.3479,1.0742,0.3479,0.93384,0,1.4954-0.65918,0.56763-0.66529,0.56763-1.7639v-0.25024h-1.1169zm2.24-0.46387,0,3.9002-1.123,0,0-1.0376q-0.38452,0.62256-0.95825,0.92163-0.57373,0.29297-1.4038,0.29297-1.0498,0-1.6724-0.58594-0.61646-0.59204-0.61646-1.5808,0-1.1536,0.76904-1.7395,0.77515-0.58594,2.3071-0.58594h1.5747v-0.10986q0-0.77515-0.51269-1.1963-0.5066-0.42725-1.4282-0.42725-0.58593,0-1.1414,0.14038-0.55542,0.14038-1.0681,0.42115v-1.0376q0.61646-0.23804,1.1963-0.35401,0.57983-0.12207,1.1292-0.12207,1.4832,0,2.2156,0.76905,0.73242,0.76904,0.73242,2.3315z"/>
   <path id="path4179" style="" d="m210.67,308.46,0,1.062q-0.47607-0.24414-0.98877-0.36621-0.51269-0.12207-1.062-0.12207-0.83618,0-1.2573,0.25634-0.41504,0.25635-0.41504,0.76905,0,0.39062,0.29907,0.61645,0.29907,0.21973,1.2024,0.42114l0.38453,0.0854q1.1963,0.25635,1.6968,0.72632,0.50659,0.46387,0.50659,1.3,0,0.95215-0.75683,1.5076-0.75073,0.55542-2.0691,0.55542-0.54932,0-1.1475-0.10986-0.59204-0.10376-1.2512-0.31739v-1.1597q0.62255,0.32349,1.2268,0.48829,0.60425,0.15869,1.1963,0.15869,0.79346,0,1.2207-0.26856,0.42725-0.27466,0.42725-0.76904,0-0.45776-0.31128-0.7019-0.30517-0.24415-1.3489-0.46998l-0.39062-0.0916q-1.0437-0.21972-1.5076-0.67138-0.46387-0.45777-0.46387-1.2512,0-0.96435,0.6836-1.4892,0.68359-0.52491,1.9409-0.52491,0.62255,0,1.1719,0.0916,0.54932,0.0915,1.0132,0.27466z"/>
   <path id="path4181" style="" d="m218.51,310.97,0,4.126-1.123,0,0-4.0894q0-0.97046-0.37841-1.4526-0.37842-0.48217-1.1353-0.48217-0.90942,0-1.4343,0.57983-0.52491,0.57983-0.52491,1.5808v3.8635h-1.1292v-9.4971h1.1292v3.7231q0.40284-0.61645,0.94605-0.92163,0.54932-0.30518,1.2634-0.30518,1.178,0,1.7822,0.73243,0.60425,0.72631,0.60425,2.1423z"/>
   <path id="path4183" style="" d="m220.76,308.26,1.123,0,0,6.8359-1.123,0,0-6.8359zm0-2.6611,1.123,0,0,1.4221-1.123,0,0-1.4221z"/>
   <path id="path4185" style="" d="m229.91,310.97,0,4.126-1.123,0,0-4.0894q0-0.97046-0.37842-1.4526-0.37841-0.48217-1.1352-0.48217-0.90942,0-1.4343,0.57983-0.5249,0.57983-0.5249,1.5808v3.8635h-1.1292v-6.8359h1.1292v1.062q0.40283-0.61645,0.94605-0.92163,0.54931-0.30518,1.2634-0.30518,1.178,0,1.7822,0.73243,0.60425,0.72631,0.60425,2.1423z"/>
   <path id="path4187" style="" d="m236.66,311.6q0-1.2207-0.50659-1.8921-0.50049-0.67138-1.4099-0.67138-0.90332,0-1.4099,0.67138-0.50049,0.67139-0.50049,1.8921,0,1.2146,0.50049,1.886,0.50659,0.67139,1.4099,0.67139,0.90943,0,1.4099-0.67139,0.50659-0.67139,0.50659-1.886zm1.123,2.6489q0,1.7456-0.77514,2.594-0.77515,0.85449-2.3743,0.85449-0.59204,0-1.1169-0.0915-0.52491-0.0854-1.0193-0.26855v-1.0925q0.49438,0.26855,0.97656,0.39673,0.48218,0.12817,0.98267,0.12817,1.1047,0,1.654-0.57983,0.54932-0.57373,0.54932-1.7395v-0.55542q-0.3479,0.60425-0.89112,0.90332-0.54321,0.29908-1.3,0.29908-1.2573,0-2.0264-0.95826-0.76905-0.95825-0.76905-2.5391,0-1.5869,0.76905-2.5452,0.76904-0.95826,2.0264-0.95826,0.75684,0,1.3,0.29908,0.54322,0.29907,0.89112,0.90332v-1.0376h1.123v5.9876z"/>
  </g>
  <g id="text4157" style="letter-spacing:0px;word-spacing:0px;" font-family="sans-serif" font-size="12.5px" line-height="125%" font-style="normal" font-weight="normal" fill="#FFF">
   <path id="path4162" style="" d="m195.1,347.57,5.2368,0,0,1.0376-4.0039,0,0,2.6856,3.6133,0,0,1.0376-3.6133,0,0,4.3518-1.2329,0,0-9.1126z"/>
   <path id="path4164" style="" d="m204.46,350.63q-0.90332,0-1.4282,0.70801-0.5249,0.7019-0.5249,1.9287t0.5188,1.9348q0.5249,0.7019,1.4343,0.7019,0.89722,0,1.4221-0.70801,0.5249-0.70801,0.5249-1.9287,0-1.2146-0.5249-1.9226-0.5249-0.71411-1.4221-0.71411zm0-0.95215q1.4648,0,2.301,0.95215,0.83618,0.95215,0.83618,2.6367,0,1.6785-0.83618,2.6367-0.83618,0.95215-2.301,0.95215-1.471,0-2.3071-0.95215-0.83008-0.95825-0.83008-2.6367,0-1.6846,0.83008-2.6367,0.83618-0.95215,2.3071-0.95215z"/>
   <path id="path4166" style="" d="m213.42,350.9q-0.18921-0.10986-0.41504-0.15869-0.21973-0.0549-0.48828-0.0549-0.95215,0-1.4648,0.62256-0.5066,0.61645-0.5066,1.7761v3.6011h-1.1292v-6.8359h1.1292v1.062q0.35401-0.62256,0.92163-0.92163,0.56763-0.30518,1.3794-0.30518,0.11597,0,0.25635,0.0183,0.14038,0.0122,0.31128,0.0427l0.006,1.1536z"/>
   <path id="path4168" style="" d="m220.19,352.98,0,0.54931-5.1636,0q0.0733,1.1597,0.6958,1.77,0.62867,0.60425,1.7456,0.60425,0.64697,0,1.2512-0.15869,0.61035-0.15869,1.2085-0.47608v1.062q-0.60425,0.25634-1.239,0.39062-0.63476,0.13428-1.2878,0.13428-1.6357,0-2.594-0.95215-0.95215-0.95215-0.95215-2.5757,0-1.6785,0.90332-2.6611,0.90942-0.98877,2.4475-0.98877,1.3794,0,2.179,0.89112,0.80567,0.88501,0.80567,2.4109zm-1.123-0.32959q-0.0122-0.92164-0.5188-1.471-0.50049-0.54932-1.3306-0.54932-0.93995,0-1.5076,0.53101-0.56153,0.531-0.64697,1.4954l4.0039-0.006z"/>
   <path id="path4170" style="" d="m226.39,350.05,0,1.062q-0.47607-0.24414-0.98877-0.36621-0.51269-0.12208-1.062-0.12208-0.83618,0-1.2573,0.25635-0.41503,0.25635-0.41503,0.76905,0,0.39062,0.29907,0.61645,0.29907,0.21973,1.2024,0.42114l0.38452,0.0854q1.1963,0.25635,1.6968,0.72632,0.50659,0.46387,0.50659,1.3,0,0.95215-0.75683,1.5076-0.75074,0.55542-2.0691,0.55542-0.54931,0-1.1475-0.10987-0.59204-0.10376-1.2512-0.31738v-1.1597q0.62256,0.32349,1.2268,0.48829,0.60425,0.15869,1.1963,0.15869,0.79345,0,1.2207-0.26856,0.42725-0.27466,0.42725-0.76904,0-0.45776-0.31128-0.70191-0.30518-0.24414-1.3489-0.46997l-0.39062-0.0915q-1.0437-0.21973-1.5076-0.67139-0.46387-0.45776-0.46387-1.2512,0-0.96435,0.68359-1.4892,0.6836-0.52491,1.9409-0.52491,0.62256,0,1.1719,0.0916,0.54931,0.0915,1.0132,0.27465z"/>
   <path id="path4172" style="" d="m229.66,347.91,0,1.9409,2.3132,0,0,0.8728-2.3132,0,0,3.7109q0,0.83618,0.22583,1.0742,0.23194,0.23803,0.93384,0.23803h1.1536v0.93995h-1.1536q-1.3,0-1.7944-0.48218-0.49439-0.48828-0.49439-1.77v-3.7109h-0.82397v-0.8728h0.82397v-1.9409h1.1292z"/>
  </g>
 </g>
 <metadata id="metadata3227">
  <rdf:RDF>
   <cc:Work>
    <dc:format>image/svg+xml</dc:format>
    <dc:type rdf:resource="http://purl.org/dc/dcmitype/StillImage"/>
    <cc:license rdf:resource="http://creativecommons.org/licenses/publicdomain/"/>
    <dc:publisher>
     <cc:Agent rdf:about="http://openclipart.org/">
      <dc:title>Openclipart</dc:title>
     </cc:Agent>
    </dc:publisher>
    <dc:title>Gear</dc:title>
    <dc:date>2014-03-05T09:46:58</dc:date>
    <dc:description>a simple grey gear</dc:description>
    <dc:source>https://openclipart.org/detail/191594/simple-gear-by-tavin-191594</dc:source>
    <dc:creator>
     <cc:Agent>
      <dc:title>Tavin</dc:title>
     </cc:Agent>
    </dc:creator>
    <dc:subject>
     <rdf:Bag>
      <rdf:li>gear</rdf:li>
      <rdf:li>machine</rdf:li>
      <rdf:li>outline</rdf:li>
      <rdf:li>zahnrad</rdf:li>
     </rdf:Bag>
    </dc:subject>
   </cc:Work>
   <cc:License rdf:about="http://creativecommons.org/licenses/publicdomain/">
    <cc:permits rdf:resource="http://creativecommons.org/ns#Reproduction"/>
    <cc:permits rdf:resource="http://creativecommons.org/ns#Distribution"/>
    <cc:permits rdf:resource="http://creativecommons.org/ns#DerivativeWorks"/>
   </cc:License>
  </rdf:RDF>
 </metadata>
</svg>
