<?xml version="1.0" encoding="UTF-8" standalone="no"?>
<!-- Created with Inkscape (http://www.inkscape.org/) -->
<svg id="svg2319" xmlns:rdf="http://www.w3.org/1999/02/22-rdf-syntax-ns#" xmlns="http://www.w3.org/2000/svg" viewBox="0 0 121 121" version="1.0" xmlns:cc="http://creativecommons.org/ns#" xmlns:dc="http://purl.org/dc/elements/1.1/">
 <title id="title2822">Gear</title>
 <defs id="defs2321"></defs>
 <g id="layer1" transform="translate(-153.03491,-268.95006)">
  <g id="Capa_x0020_1" fill-rule="evenodd" transform="matrix(39.803439,0,0,39.803439,63.558407,116.51139)">
   <path id="path83" d="M74.031,0.0625l-7.625,13.376c-1.948-0.254-3.952-0.376-5.968-0.376-2.281,0-4.528,0.147-6.719,0.469l-8.469-13.062c-4.32,1.1294-8.454,2.7378-12.344,4.75l2.656,15.187c-3.574,2.316-6.813,5.12-9.624,8.313l-14.813-4.5c-2.5493,3.609-4.7344,7.491-6.4688,11.625l11.688,9.906c-1.241,4.003-1.94,8.239-2.063,12.625l-14.218,6.187c0.35144,4.527,1.1957,8.929,2.4687,13.126l15.25-0.032c1.644,3.984,3.823,7.697,6.438,11.032l-6.938,13.972c3.091,3.17,6.508,6,10.219,8.43l11.688-9.9c3.713,1.95,7.719,3.4,11.937,4.28l3.563,15.19c1.898,0.18,3.804,0.28,5.75,0.28,2.519,0,4.999-0.17,7.437-0.47l2.656-15.19c4.199-0.94,8.162-2.45,11.844-4.47l12.406,9.35c3.641-2.54,6.999-5.46,9.999-8.72l-7.655-13.378c2.559-3.376,4.705-7.111,6.285-11.124l15.43-0.876c1.16-4.227,1.87-8.646,2.1-13.187l-14.35-5.281c-0.19-4.379-1-8.579-2.31-12.563l11.28-10.719c-1.84-4.079-4.13-7.929-6.78-11.468l-14.342,5.281c-2.863-3.143-6.136-5.869-9.75-8.125l1.812-15.531c-3.941-1.9-8.114-3.3984-12.469-4.4063zm-13.531,52.626c4.313,0,7.812,3.499,7.812,7.812s-3.499,7.812-7.812,7.812-7.812-3.499-7.812-7.812,3.499-7.812,7.812-7.812z" transform="matrix(0.02512346,0,0,0.02512346,2.2479591,3.8297864)" stroke="#dededd" stroke-width="0.05735795000000000" fill="#067a6b"/>
  </g>
 </g>
 <metadata id="metadata3227">
  <rdf:RDF>
   <cc:Work>
    <dc:format>image/svg+xml</dc:format>
    <dc:type rdf:resource="http://purl.org/dc/dcmitype/StillImage"/>
    <cc:license rdf:resource="http://creativecommons.org/licenses/publicdomain/"/>
    <dc:publisher>
     <cc:Agent rdf:about="http://openclipart.org/">
      <dc:title>Openclipart</dc:title>
     </cc:Agent>
    </dc:publisher>
    <dc:title>Gear</dc:title>
    <dc:date>2014-03-05T09:46:58</dc:date>
    <dc:description>a simple grey gear</dc:description>
    <dc:source>https://openclipart.org/detail/191594/simple-gear-by-tavin-191594</dc:source>
    <dc:creator>
     <cc:Agent>
      <dc:title>Tavin</dc:title>
     </cc:Agent>
    </dc:creator>
    <dc:subject>
     <rdf:Bag>
      <rdf:li>gear</rdf:li>
      <rdf:li>machine</rdf:li>
      <rdf:li>outline</rdf:li>
      <rdf:li>zahnrad</rdf:li>
     </rdf:Bag>
    </dc:subject>
   </cc:Work>
   <cc:License rdf:about="http://creativecommons.org/licenses/publicdomain/">
    <cc:permits rdf:resource="http://creativecommons.org/ns#Reproduction"/>
    <cc:permits rdf:resource="http://creativecommons.org/ns#Distribution"/>
    <cc:permits rdf:resource="http://creativecommons.org/ns#DerivativeWorks"/>
   </cc:License>
  </rdf:RDF>
 </metadata>
</svg>
