<?xml version="1.0" encoding="UTF-8" standalone="no"?>
<!-- Created with Inkscape (http://www.inkscape.org/) -->
<svg id="svg3033" xmlns:rdf="http://www.w3.org/1999/02/22-rdf-syntax-ns#" xmlns="http://www.w3.org/2000/svg" viewBox="0 0 301.66 336.32" version="1.1" xmlns:cc="http://creativecommons.org/ns#" xmlns:dc="http://purl.org/dc/elements/1.1/">
 <metadata id="metadata3038">
  <rdf:RDF>
   <cc:Work rdf:about="">
    <dc:format>image/svg+xml</dc:format>
    <dc:type rdf:resource="http://purl.org/dc/dcmitype/StillImage"/>
    <dc:title/>
   </cc:Work>
  </rdf:RDF>
 </metadata>
 <g id="layer1" transform="translate(-257.44314,-309.05204)">
  <g id="g3074" transform="matrix(0.62176957,0,0,0.62176957,313.38485,306.31688)">
   <g id="g3887" fill="#881482">
    <path id="path3048" d="m168.62,181.8c17.896,20.604-4.702,39.145-4.702,39.145s45.441-23.458,24.572-52.833c-19.491-27.394-34.438-41.005,46.479-87.934,0,0-127.01,31.722-66.349,101.62"/>
    <path id="path3056" d="m188.5,4.399s38.55,38.563-36.563,97.862c-60.233,47.568-13.735,74.69-0.025,105.68-35.17-31.72-60.974-59.65-43.66-85.64,25.4-38.149,95.79-56.646,80.24-117.9"/>
   </g>
   <g id="g3104" fill="#067a6b">
    <path id="path3044" d="m102.68,291.32s-14.178,8.245,10.09,11.035c29.4,3.354,44.426,2.873,76.825-3.259,0,0,8.518,5.341,20.414,9.967-72.63,31.128-164.38-1.803-107.33-17.743"/>
    <path id="path3046" d="m93.806,250.7s-15.902,11.771,8.384,14.283c31.406,3.24,56.208,3.505,99.125-4.759,0,0,5.936,6.018,15.27,9.309-87.814,25.678-185.62,2.025-122.78-18.833"/>
    <path id="path3050" d="m264.68,321.37s10.492,8.645-11.555,15.333c-41.923,12.7-174.49,16.535-211.31,0.506-13.238-5.759,11.587-13.751,19.396-15.428,8.144-1.766,12.798-1.437,12.798-1.437-14.722-10.371-95.157,20.364-40.857,29.166,148.08,24.015,269.94-10.814,231.53-28.14"/>
    <path id="path3052" d="m109.5,208.62s-67.431,16.016-23.879,21.832c18.389,2.462,55.047,1.905,89.193-0.956,27.906-2.354,55.927-7.359,55.927-7.359s-9.84,4.214-16.959,9.075c-28.316,7.4471-67.542,10.382-101.12,9.9605-47.624-0.5978-83.887-7.947-61.553-18.751,32.206-15.568,58.392-13.802,58.392-13.802"/>
    <path id="path3054" d="m230.46,276.23c69.608-36.171,37.424-70.931,14.96-66.248-5.506,1.146-7.961,2.139-7.961,2.139s2.044-3.202,5.948-4.588c44.441-15.624,78.619,46.081-14.346,70.52,0,0.001,1.077-0.962,1.399-1.823"/>
    <path id="path3058" d="m116.34,374.25c66.815,4.277,169.42-2.373,171.85-33.988,0,0-4.671,11.985-55.219,21.503-57.028,10.732-127.36,9.479-169.08,2.601,0.001-0.001,8.54,7.068,52.453,9.884"/>
   </g>
   <g id="g3112" fill="#067a6b">
    <path id="path3042" d="m285.1,430.94h-2.038v-1.14h5.486v1.14h-2.024v5.688h-1.424v-5.688zm10.942,0.297h-0.032l-2.019,5.392h-0.924l-2.006-5.392h-0.025v5.392h-1.342v-6.828h1.975l1.86,4.835,1.854-4.835h1.968v6.828h-1.31v-5.392z"/>
    <path id="path3060" d="m105.39,495.05c-6.303,5.467-12.96,8.536-18.934,8.536-8.527,0-13.134-5.113-13.134-13.314,0-8.871,4.936-15.357,24.739-15.357h7.328v20.135m17.393,19.623v-60.742c0-15.517-8.85-25.756-30.188-25.756-12.457,0-23.369,3.076-32.238,6.999l2.56,10.752c6.983-2.563,16.022-4.949,24.894-4.949,12.292,0,17.58,4.949,17.58,15.181v7.677h-6.135c-29.865,0-43.337,11.593-43.337,28.994,0,15.017,8.878,23.553,25.594,23.553,10.745,0,18.766-4.436,26.264-10.928l1.361,9.22h13.645z"/>
    <path id="path3062" d="m180.82,514.67h-21.692l-26.106-84.96h18.943l16.199,52.2,3.601,15.699c8.195-22.698,13.991-45.726,16.89-67.899h18.427c-4.937,27.977-13.821,58.685-26.262,84.96"/>
    <path id="path3064" d="m264.04,495.05c-6.315,5.467-12.984,8.536-18.958,8.536-8.512,0-13.131-5.113-13.131-13.314,0-8.871,4.948-15.357,24.749-15.357h7.34v20.135m17.39,19.623v-60.742c0-15.517-8.872-25.756-30.185-25.756-12.466,0-23.382,3.076-32.247,6.999l2.556,10.752c6.986-2.563,16.042-4.949,24.907-4.949,12.283,0,17.579,4.949,17.579,15.181v7.677h-6.145c-29.874,0-43.34,11.593-43.34,28.994,0,15.017,8.871,23.553,25.584,23.553,10.751,0,18.769-4.436,26.28-10.928l1.366,9.22h13.645z"/>
    <path id="path3066" d="m36.847,529.1c-4.958,7.239-12.966,12.966-21.733,16.206l-8.587-10.11c6.673-3.424,12.396-8.954,15.055-14.105,2.3-4.581,3.252-10.485,3.252-24.604v-96.995h18.478v95.666c-0.001,18.876-1.51,26.501-6.465,33.937"/>
   </g>
  </g>
  <g id="flowRoot3891" style="letter-spacing:0px;word-spacing:0px;" font-weight="normal" transform="matrix(0.50805554,-0.35877066,0.35877066,0.50805554,330.41066,598.59338)" font-stretch="normal" line-height="125%" font-size="28px" font-variant="normal" font-family="Arial" font-style="normal" fill="#067a6b">
   <path id="path3900" d="m262.46,99.369,2.6523,0.66993c-0.55601,2.1784-1.5563,3.8395-3.001,4.9834s-3.2106,1.7158-5.2978,1.7158c-2.1602,0-3.917-0.43977-5.2705-1.3193-1.3535-0.87956-2.3835-2.1533-3.0898-3.8213-0.70638-1.668-1.0596-3.459-1.0596-5.373,0-2.0872,0.39876-3.9079,1.1963-5.4619,0.79752-1.554,1.9323-2.7344,3.4043-3.541,1.472-0.80662,3.0921-1.2099,4.8604-1.21,2.0052,0.00002,3.6914,0.51044,5.0586,1.5312,1.3672,1.0209,2.3196,2.4564,2.8574,4.3066l-2.6113,0.61524c-0.46486-1.4583-1.1393-2.5202-2.0234-3.1855-0.88413-0.66535-1.9961-0.99803-3.3359-0.99805-1.5404,0.000018-2.8278,0.36916-3.8623,1.1074-1.0345,0.7383-1.7614,1.7295-2.1807,2.9736-0.41927,1.2442-0.62891,2.527-0.6289,3.8486-0.00001,1.7044,0.24836,3.1924,0.74511,4.4639,0.49674,1.2715,1.2692,2.2217,2.3174,2.8506,1.0482,0.62891,2.1829,0.94336,3.4043,0.94336,1.4857,0,2.7435-0.42838,3.7734-1.2852,1.0299-0.85677,1.7272-2.1282,2.0918-3.8145z"/>
   <path id="path3902" d="m267.16,99.136c0-2.6888,0.7474-4.6803,2.2422-5.9746,1.2487-1.0755,2.7708-1.6133,4.5664-1.6133,1.9961,0.000015,3.6276,0.65399,4.8945,1.9619,1.2669,1.308,1.9004,3.1149,1.9004,5.4209-0.00002,1.8685-0.28029,3.3382-0.84082,4.4092-0.56056,1.071-1.3763,1.9027-2.4473,2.4951-1.071,0.59245-2.2399,0.88867-3.5068,0.88867-2.0326,0-3.6755-0.65169-4.9287-1.9551-1.2533-1.3034-1.8799-3.181-1.8799-5.6328zm2.5293,0c0,1.8594,0.40559,3.2516,1.2168,4.1768,0.81119,0.92513,1.832,1.3877,3.0625,1.3877,1.2213,0.00001,2.2376-0.46484,3.0488-1.3945,0.81119-0.92968,1.2168-2.347,1.2168-4.252-0.00001-1.7956-0.40789-3.1559-1.2236-4.0811-0.81577-0.92512-1.8298-1.3877-3.042-1.3877-1.2305,0.000013-2.2513,0.4603-3.0625,1.3809-0.81121,0.92058-1.2168,2.3106-1.2168,4.1699z"/>
   <path id="path3904" d="m283.67,106.4,0-14.52,2.2148,0,0,2.0645c1.0664-1.595,2.6068-2.3926,4.6211-2.3926,0.87499,0.000015,1.6794,0.15724,2.4131,0.47168,0.73371,0.31447,1.2829,0.7269,1.6475,1.2373,0.36457,0.51043,0.61978,1.1165,0.76562,1.8184,0.0911,0.45574,0.13671,1.2533,0.13672,2.3926v8.9277h-2.4609v-8.832c-0.00001-1.0026-0.0957-1.7523-0.28711-2.249-0.19142-0.49673-0.53094-0.89322-1.0186-1.1895-0.48764-0.29621-1.0596-0.44432-1.7158-0.44434-1.0482,0.000012-1.9528,0.33269-2.7139,0.99805-0.76107,0.66538-1.1416,1.9277-1.1416,3.7871v7.9297z"/>
   <path id="path3906" d="m299.25,106.4,0-14.52,2.2148,0,0,2.0645c1.0664-1.595,2.6068-2.3926,4.6211-2.3926,0.87499,0.000015,1.6794,0.15724,2.4131,0.47168,0.73371,0.31447,1.2829,0.7269,1.6475,1.2373,0.36457,0.51043,0.61978,1.1165,0.76562,1.8184,0.0911,0.45574,0.13671,1.2533,0.13672,2.3926v8.9277h-2.4609v-8.832c-0.00001-1.0026-0.0957-1.7523-0.28711-2.249-0.19141-0.49673-0.53093-0.89322-1.0186-1.1895-0.48764-0.29621-1.0596-0.44432-1.7158-0.44434-1.0482,0.000012-1.9528,0.33269-2.7139,0.99805-0.76107,0.66538-1.1416,1.9277-1.1416,3.7871v7.9297z"/>
   <path id="path3908" d="m324.78,101.72,2.543,0.31445c-0.40105,1.4857-1.1439,2.6387-2.2285,3.459-1.0846,0.82032-2.4701,1.2305-4.1562,1.2305-2.1237,0-3.8076-0.65397-5.0518-1.9619-1.2441-1.3079-1.8662-3.1422-1.8662-5.5029,0-2.4427,0.6289-4.3385,1.8867-5.6875,1.2578-1.3489,2.8893-2.0234,4.8945-2.0234,1.9414,0.000015,3.5273,0.66082,4.7578,1.9824s1.8457,3.181,1.8457,5.5781c-0.00001,0.14584-0.005,0.36459-0.0137,0.65625h-10.828c0.0911,1.5951,0.54231,2.8164,1.3535,3.6641,0.81119,0.84766,1.8229,1.2715,3.0352,1.2715,0.90233,0.00001,1.6725-0.23697,2.3106-0.71093,0.63801-0.47396,1.1439-1.2305,1.5176-2.2695zm-8.0801-3.9785,8.1074,0c-0.10939-1.2213-0.41928-2.1374-0.92969-2.748-0.78386-0.9479-1.8001-1.4219-3.0488-1.4219-1.1302,0.000012-2.0804,0.37827-2.8506,1.1348-0.77019,0.75652-1.1963,1.7682-1.2783,3.0352z"/>
   <path id="path3910" d="m339.9,101.08,2.4199,0.31445c-0.26434,1.668-0.94109,2.9736-2.0303,3.917-1.0892,0.94336-2.4268,1.415-4.0127,1.415-1.987,0-3.5843-0.64941-4.792-1.9482s-1.8115-3.1605-1.8115-5.585c0-1.5677,0.25977-2.9394,0.7793-4.1152s1.3102-2.0576,2.3721-2.6455c1.0618-0.58788,2.2171-0.88182,3.4658-0.88184,1.5768,0.000015,2.8665,0.39878,3.8691,1.1963,1.0026,0.79754,1.6452,1.93,1.9277,3.3975l-2.3926,0.36914c-0.22788-0.97525-0.6312-1.709-1.21-2.2012-0.57879-0.49218-1.2783-0.73827-2.0986-0.73828-1.2396,0.000012-2.2468,0.44435-3.0215,1.333-0.77474,0.88868-1.1621,2.2946-1.1621,4.2178,0,1.9505,0.3737,3.3678,1.1211,4.252,0.74739,0.88412,1.7226,1.3262,2.9258,1.3262,0.96613,0.00001,1.7728-0.29622,2.4199-0.88867,0.64712-0.59244,1.0573-1.5039,1.2305-2.7344z"/>
   <path id="path3912" d="m349.8,104.19,0.35547,2.1738c-0.69271,0.14584-1.3125,0.21875-1.8594,0.21875-0.89324,0-1.5859-0.14127-2.0781-0.42382-0.49219-0.28256-0.83854-0.65397-1.0391-1.1143-0.20052-0.46029-0.30078-1.4287-0.30078-2.9053v-8.3535h-1.8047v-1.9141h1.8047v-3.5957l2.4473-1.4766v5.0723h2.4746v1.9141h-2.4746v8.4902c-0.00001,0.70183,0.0433,1.153,0.12988,1.3535,0.0866,0.20052,0.22786,0.36003,0.42383,0.47851,0.19595,0.1185,0.47623,0.17774,0.84082,0.17774,0.27343,0,0.63345-0.0319,1.0801-0.0957z"/>
   <path id="path3914" d="m351.27,99.136c0-2.6888,0.74739-4.6803,2.2422-5.9746,1.2487-1.0755,2.7708-1.6133,4.5664-1.6133,1.9961,0.000015,3.6276,0.65399,4.8945,1.9619,1.2669,1.308,1.9004,3.1149,1.9004,5.4209-0.00001,1.8685-0.28028,3.3382-0.84082,4.4092-0.56056,1.071-1.3763,1.9027-2.4473,2.4951-1.071,0.59245-2.2399,0.88867-3.5068,0.88867-2.0326,0-3.6755-0.65169-4.9287-1.9551-1.2533-1.3034-1.8799-3.181-1.8799-5.6328zm2.5293,0c0,1.8594,0.4056,3.2516,1.2168,4.1768,0.81119,0.92513,1.832,1.3877,3.0625,1.3877,1.2214,0.00001,2.2376-0.46484,3.0488-1.3945,0.81119-0.92968,1.2168-2.347,1.2168-4.252-0.00002-1.7956-0.40789-3.1559-1.2236-4.0811-0.81576-0.92512-1.8298-1.3877-3.042-1.3877-1.2305,0.000013-2.2513,0.4603-3.0625,1.3809-0.8112,0.92058-1.2168,2.3106-1.2168,4.1699z"/>
   <path id="path3916" d="m367.75,106.4,0-14.52,2.2148,0,0,2.2012c0.5651-1.0299,1.0869-1.709,1.5654-2.0371,0.47851-0.32811,1.0049-0.49217,1.5791-0.49219,0.82942,0.000015,1.6725,0.26434,2.5293,0.79297l-0.84766,2.2832c-0.60157-0.35546-1.2031-0.53319-1.8047-0.5332-0.53776,0.000012-1.0208,0.1618-1.4492,0.48535-0.42839,0.32358-0.73373,0.77247-0.91602,1.3467-0.27344,0.87501-0.41016,1.832-0.41016,2.8711v7.6016z"/>
  </g>
 </g>
</svg>
