<?xml version="1.0" encoding="UTF-8" standalone="no"?>
<!-- Created with Inkscape (http://www.inkscape.org/) -->
<svg id="svg3101" xmlns:rdf="http://www.w3.org/1999/02/22-rdf-syntax-ns#" xmlns="http://www.w3.org/2000/svg" viewBox="0 0 116.56 103.56" version="1.1" xmlns:cc="http://creativecommons.org/ns#" xmlns:dc="http://purl.org/dc/elements/1.1/">
 <defs id="defs3103"></defs>
 <metadata id="metadata3106">
  <rdf:RDF>
   <cc:Work rdf:about="">
    <dc:format>image/svg+xml</dc:format>
    <dc:type rdf:resource="http://purl.org/dc/dcmitype/StillImage"/>
    <dc:title/>
   </cc:Work>
  </rdf:RDF>
 </metadata>
 <g id="layer1" transform="translate(-307.4375,-709.15625)">
  <path id="path3036" stroke-linejoin="miter" d="m331.46,730.22h23.074c11.537,0-17.306-20.474,11.537-20.474s0,20.474,11.537,20.474h23.074v20.474c0,10.237,23.074-15.356,23.074,10.237s-23.074,0-23.074,10.237v20.474h-23.074c-11.537,0,17.305,20.474-11.537,20.474-28.843,0,0-20.474-11.537-20.474h-23.074v-20.474c0-10.237-23.074,15.356-23.074-10.237s23.074,0,23.074-10.237v-20.474z" fill-rule="evenodd" stroke="#FFF" stroke-linecap="butt" stroke-dasharray="none" stroke-width="1.21431291" fill="#1184a7"/>
  <g id="text3759" style="letter-spacing:0px;word-spacing:0px;" font-family="Sans" font-size="12px" line-height="125%" font-style="normal" font-weight="normal" fill="#FFF">
   <path id="path3764" d="m335.83,761.74,1.0723-0.0937c0.0508,0.42969,0.16894,0.78223,0.35449,1.0576,0.18554,0.27539,0.47363,0.49805,0.86426,0.66797,0.39062,0.16992,0.83007,0.25488,1.3184,0.25488,0.43359,0,0.81641-0.0644,1.1484-0.19336,0.33203-0.12891,0.5791-0.30566,0.74121-0.53027s0.24316-0.46973,0.24317-0.73536c-0.00001-0.26952-0.0781-0.50488-0.23438-0.70605-0.15625-0.20117-0.41407-0.37011-0.77344-0.50684-0.23047-0.0898-0.74023-0.22948-1.5293-0.41894-0.78907-0.18945-1.3418-0.36816-1.6582-0.53613-0.41015-0.21484-0.71582-0.48144-0.91699-0.79981-0.20117-0.31835-0.30176-0.6748-0.30176-1.0693,0-0.43358,0.12305-0.83886,0.36915-1.2158,0.24609-0.37694,0.60546-0.66307,1.0781-0.85839,0.47265-0.19531,0.99804-0.29296,1.5762-0.29297,0.63672,0.00001,1.1982,0.10255,1.6846,0.30761,0.48632,0.20509,0.86035,0.50685,1.1221,0.90528,0.26171,0.39844,0.40234,0.84961,0.42188,1.3535l-1.0898,0.082c-0.0586-0.54296-0.25684-0.95311-0.59472-1.2305-0.3379-0.27734-0.83692-0.41601-1.4971-0.41602-0.68751,0.00001-1.1885,0.12598-1.5029,0.37793-0.31446,0.25196-0.47168,0.55567-0.47168,0.91113,0,0.3086,0.11132,0.56251,0.33398,0.76172,0.21875,0.19923,0.79004,0.40333,1.7139,0.61231,0.92382,0.20899,1.5576,0.3916,1.9014,0.54785,0.49999,0.23047,0.86913,0.52246,1.1074,0.87597,0.23827,0.35352,0.35741,0.76075,0.35742,1.2217-0.00001,0.45704-0.13087,0.8877-0.39258,1.292-0.26172,0.40429-0.6377,0.71875-1.1279,0.94336-0.49024,0.22461-1.042,0.33691-1.6553,0.33691-0.77735,0-1.4287-0.11328-1.9541-0.33984-0.52539-0.22657-0.9375-0.56739-1.2363-1.0225-0.29883-0.45508-0.45606-0.96973-0.47168-1.544z"/>
   <path id="path3766" d="m348.16,762.23,1.0371,0.13476c-0.11328,0.71485-0.40332,1.2744-0.87011,1.6787-0.4668,0.40429-1.04,0.60644-1.7197,0.60644-0.85156,0-1.5361-0.27832-2.0537-0.83496-0.51758-0.55664-0.77637-1.3545-0.77637-2.3936,0-0.67187,0.11133-1.2598,0.33399-1.7637,0.22265-0.5039,0.56152-0.88183,1.0166-1.1338,0.45507-0.25194,0.95019-0.37792,1.4854-0.37793,0.67578,0.00001,1.2285,0.17091,1.6582,0.5127,0.42968,0.3418,0.70508,0.82715,0.82617,1.456l-1.0254,0.15821c-0.0977-0.41797-0.27051-0.73242-0.51855-0.94336-0.24805-0.21093-0.54786-0.3164-0.89941-0.31641-0.53126,0.00001-0.9629,0.19044-1.2949,0.57129-0.33203,0.38086-0.49804,0.9834-0.49804,1.8076,0,0.83594,0.16015,1.4434,0.48047,1.8223,0.32031,0.37891,0.73827,0.56836,1.2539,0.56836,0.41406,0,0.75976-0.12695,1.0371-0.38086,0.27734-0.2539,0.45312-0.64453,0.52734-1.1719z"/>
   <path id="path3768" d="m350.09,764.5,0-6.2227,0.94922,0,0,0.94336c0.24218-0.4414,0.46582-0.73242,0.6709-0.87305,0.20507-0.14062,0.43066-0.21093,0.67675-0.21094,0.35547,0.00001,0.7168,0.11329,1.084,0.33985l-0.36328,0.97851c-0.25782-0.15233-0.51563-0.22851-0.77344-0.22851-0.23047,0-0.4375,0.0693-0.62109,0.20801-0.1836,0.13867-0.31446,0.33106-0.39258,0.57714-0.11719,0.37501-0.17579,0.78516-0.17578,1.2305v3.2578z"/>
   <path id="path3770" d="m358.37,762.5,1.0898,0.13476c-0.17188,0.63672-0.49024,1.1309-0.95508,1.4824-0.46485,0.35156-1.0586,0.52734-1.7812,0.52734-0.91016,0-1.6318-0.28027-2.165-0.84082s-0.7998-1.3467-0.7998-2.3584c0-1.0469,0.26953-1.8594,0.80859-2.4375,0.53906-0.57812,1.2383-0.86718,2.0977-0.86719,0.83202,0.00001,1.5117,0.28321,2.0391,0.84961,0.52734,0.56641,0.79101,1.3633,0.79102,2.3906-0.00001,0.0625-0.002,0.15625-0.006,0.28125h-4.6406c0.0391,0.68359,0.23242,1.207,0.58008,1.5703,0.34765,0.36328,0.78125,0.54492,1.3008,0.54492,0.38672,0,0.71679-0.10156,0.99024-0.30468,0.27343-0.20313,0.49022-0.52735,0.65039-0.97266zm-3.4629-1.7051,3.4746,0c-0.0469-0.52343-0.17969-0.91601-0.39843-1.1777-0.33594-0.40625-0.77149-0.60937-1.3066-0.60938-0.48438,0.00001-0.89161,0.16212-1.2217,0.48633-0.33008,0.32422-0.5127,0.75782-0.54785,1.3008z"/>
   <path id="path3772" d="m365.05,762.5,1.0898,0.13476c-0.17188,0.63672-0.49024,1.1309-0.95508,1.4824-0.46485,0.35156-1.0586,0.52734-1.7812,0.52734-0.91016,0-1.6318-0.28027-2.165-0.84082s-0.79981-1.3467-0.7998-2.3584c-0.00001-1.0469,0.26953-1.8594,0.80859-2.4375,0.53906-0.57812,1.2383-0.86718,2.0977-0.86719,0.83202,0.00001,1.5117,0.28321,2.0391,0.84961,0.52734,0.56641,0.79101,1.3633,0.79101,2.3906,0,0.0625-0.002,0.15625-0.006,0.28125h-4.6406c0.0391,0.68359,0.23242,1.207,0.58008,1.5703,0.34765,0.36328,0.78124,0.54492,1.3008,0.54492,0.38671,0,0.71679-0.10156,0.99023-0.30468,0.27344-0.20313,0.49023-0.52735,0.65039-0.97266zm-3.4629-1.7051,3.4746,0c-0.0469-0.52343-0.17969-0.91601-0.39844-1.1777-0.33594-0.40625-0.77148-0.60937-1.3066-0.60938-0.48437,0.00001-0.8916,0.16212-1.2217,0.48633-0.33008,0.32422-0.51269,0.75782-0.54785,1.3008z"/>
   <path id="path3774" d="m367.47,764.5,0-6.2227,0.94921,0,0,0.88476c0.45703-0.68358,1.1172-1.0254,1.9805-1.0254,0.375,0.00001,0.71972,0.0674,1.0342,0.20215,0.31445,0.13477,0.5498,0.31153,0.70606,0.53028,0.15624,0.21875,0.26562,0.47852,0.32812,0.77929,0.0391,0.19532,0.0586,0.53712,0.0586,1.0254v3.8262h-1.0547v-3.7852c-0.00001-0.42968-0.041-0.75097-0.12305-0.96387-0.082-0.21288-0.22754-0.38281-0.43652-0.50976-0.20899-0.12695-0.45411-0.19043-0.73535-0.19043-0.44923,0-0.83692,0.14258-1.1631,0.42773-0.32617,0.28516-0.48926,0.82618-0.48926,1.623v3.3984z"/>
   <path id="path3776" d="m373.73,762.65,1.043-0.16406c0.0586,0.41797,0.22167,0.73828,0.48925,0.96094s0.6416,0.33398,1.1221,0.33398c0.48438,0,0.84375-0.0986,1.0781-0.2959,0.23437-0.19726,0.35156-0.4287,0.35156-0.69433,0-0.23828-0.10352-0.42578-0.31054-0.5625-0.14454-0.0937-0.50391-0.21289-1.0781-0.35742-0.77344-0.19531-1.3096-0.36426-1.6084-0.50684-0.29883-0.14257-0.52539-0.33984-0.67969-0.5918-0.15429-0.25195-0.23144-0.53027-0.23144-0.83496,0-0.27734,0.0635-0.53417,0.19043-0.7705,0.12695-0.23633,0.2998-0.43262,0.51855-0.58887,0.16406-0.12109,0.3877-0.22363,0.6709-0.30762,0.2832-0.084,0.58691-0.12597,0.91113-0.12598,0.48828,0.00001,0.91699,0.0703,1.2861,0.21094,0.36913,0.14063,0.64159,0.33106,0.81738,0.57129,0.17578,0.24024,0.29687,0.56153,0.36328,0.96387l-1.0312,0.14062c-0.0469-0.3203-0.18262-0.5703-0.40722-0.75-0.22462-0.17968-0.542-0.26952-0.95215-0.26953-0.48438,0.00001-0.83008,0.0801-1.0371,0.24024-0.20704,0.16016-0.31055,0.34766-0.31055,0.5625,0,0.13672,0.043,0.25977,0.12891,0.36914,0.0859,0.11328,0.2207,0.20703,0.40429,0.28125,0.10547,0.0391,0.41602,0.12891,0.93164,0.26953,0.74609,0.19922,1.2666,0.36231,1.5615,0.48926,0.29491,0.12695,0.52636,0.31152,0.69433,0.55371s0.25195,0.54297,0.25196,0.90234c-0.00001,0.35156-0.10255,0.68262-0.30762,0.99316-0.20508,0.31055-0.50098,0.55079-0.8877,0.72071s-0.82422,0.25488-1.3125,0.25488c-0.80859,0-1.4248-0.16797-1.8486-0.50391-0.42383-0.33593-0.69434-0.83398-0.81152-1.4941z"/>
   <path id="path3778" d="m380.15,764.5,0-8.5898,1.0547,0,0,3.082c0.49219-0.5703,1.1133-0.85546,1.8633-0.85547,0.46093,0.00001,0.86133,0.0908,1.2012,0.27247,0.33984,0.18164,0.58301,0.43262,0.7295,0.75292,0.14647,0.32032,0.21972,0.78517,0.21972,1.3945v3.9434h-1.0547v-3.9434c0-0.52734-0.11426-0.91113-0.34277-1.1514-0.22852-0.24023-0.55176-0.36035-0.96973-0.36035-0.3125,0-0.60644,0.0811-0.88183,0.24316-0.27539,0.16212-0.47168,0.38184-0.58887,0.65918-0.11719,0.27735-0.17578,0.66016-0.17578,1.1484v3.4043z"/>
   <path id="path3780" d="m386.44,761.39c0-1.1523,0.32031-2.0059,0.96094-2.5606,0.53515-0.46093,1.1875-0.6914,1.957-0.69141,0.85547,0.00001,1.5547,0.28028,2.0977,0.84082,0.54296,0.56056,0.81444,1.335,0.81445,2.3232-0.00001,0.80078-0.12012,1.4307-0.36035,1.8896-0.24024,0.45898-0.58985,0.81543-1.0488,1.0693-0.45899,0.25391-0.95996,0.38086-1.5029,0.38086-0.8711,0-1.5752-0.2793-2.1123-0.83789-0.53711-0.55859-0.80567-1.3633-0.80567-2.4141zm1.084,0c0,0.79687,0.17382,1.3936,0.52148,1.79,0.34765,0.39648,0.78515,0.59472,1.3125,0.59472,0.52343,0,0.95898-0.19921,1.3066-0.59765,0.34765-0.39844,0.52148-1.0059,0.52149-1.8223-0.00001-0.76953-0.17481-1.3525-0.52442-1.749-0.34961-0.39648-0.78418-0.59472-1.3037-0.59473-0.52735,0.00001-0.96485,0.19727-1.3125,0.5918-0.34766,0.39453-0.52148,0.99024-0.52148,1.7871z"/>
   <path id="path3782" d="m395.81,763.56,0.15235,0.93164c-0.29688,0.0625-0.56251,0.0937-0.79688,0.0937-0.38281,0-0.67969-0.0606-0.89062-0.18164-0.21094-0.1211-0.35938-0.28028-0.44532-0.47754-0.0859-0.19727-0.1289-0.61231-0.1289-1.2451v-3.5801h-0.77344v-0.82031h0.77344v-1.541l1.0488-0.63281v2.1738h1.0605v0.82031h-1.0605v3.6387c-0.00001,0.30079,0.0186,0.49415,0.0557,0.58008,0.0371,0.0859,0.0976,0.1543,0.18164,0.20508,0.084,0.0508,0.2041,0.0762,0.36035,0.0762,0.11719,0,0.27148-0.0137,0.46289-0.041z"/>
  </g>
 </g>
</svg>
