<?xml version="1.0" encoding="UTF-8" standalone="no"?>
<!-- Created with Inkscape (http://www.inkscape.org/) -->

<svg
   xmlns:dc="http://purl.org/dc/elements/1.1/"
   xmlns:cc="http://creativecommons.org/ns#"
   xmlns:rdf="http://www.w3.org/1999/02/22-rdf-syntax-ns#"
   xmlns:svg="http://www.w3.org/2000/svg"
   xmlns="http://www.w3.org/2000/svg"
   xmlns:sodipodi="http://sodipodi.sourceforge.net/DTD/sodipodi-0.dtd"
   xmlns:inkscape="http://www.inkscape.org/namespaces/inkscape"
   width="116.5625"
   height="64.25"
   id="svg3075"
   version="1.1"
   inkscape:version="0.48.5 r10040"
   sodipodi:docname="jigzaw piece 1.svg">
  <defs
     id="defs3077" />
  <sodipodi:namedview
     id="base"
     pagecolor="#ffffff"
     bordercolor="#666666"
     borderopacity="1.0"
     inkscape:pageopacity="0.0"
     inkscape:pageshadow="2"
     inkscape:zoom="1.979899"
     inkscape:cx="176.88681"
     inkscape:cy="41.879419"
     inkscape:document-units="px"
     inkscape:current-layer="layer1"
     showgrid="false"
     fit-margin-top="0"
     fit-margin-left="0"
     fit-margin-right="0"
     fit-margin-bottom="0"
     inkscape:window-width="1400"
     inkscape:window-height="988"
     inkscape:window-x="-8"
     inkscape:window-y="-8"
     inkscape:window-maximized="1" />
  <metadata
     id="metadata3080">
    <rdf:RDF>
      <cc:Work
         rdf:about="">
        <dc:format>image/svg+xml</dc:format>
        <dc:type
           rdf:resource="http://purl.org/dc/dcmitype/StillImage" />
        <dc:title></dc:title>
      </cc:Work>
    </rdf:RDF>
  </metadata>
  <g
     inkscape:label="Layer 1"
     inkscape:groupmode="layer"
     id="layer1"
     transform="translate(-276,-714.53125)">
    <path
       inkscape:connector-curvature="0"
       d="m 299.69196,715.14789 c 17.29688,0 11.53125,0 23.0625,0 11.53125,0 -17.29687,21.00001 11.53125,21.00001 28.82813,0 0,-21.00001 11.53126,-21.00001 11.53125,0 17.29687,0 23.0625,0 0,5.25 0,10.5 0,21.00001 0,10.5 23.0625,-15.75001 23.0625,10.5 0,26.25 -23.0625,0 -23.0625,10.5 0,10.5 0,15.75 0,21 -5.76563,0 -11.53125,0 -23.0625,0 -11.53126,0 17.29687,-21 -11.53126,-21 -28.82812,0 0,21 -11.53125,21 -11.53125,0 -17.29687,0 -23.0625,0 0,-5.25 0,-10.5 0,-21 0,-10.5 -23.0625,15.75 -23.0625,-10.5 0,-26.25001 23.0625,0 23.0625,-10.5 0,-10.50001 0,-15.75001 0,-21.00001"
       id="Polygon12"
       style="fill:#067a6b;fill-rule:evenodd;stroke:#ffffff;stroke-width:1.25000011999999990;stroke-linecap:butt;stroke-linejoin:miter;stroke-dasharray:none" />
  </g>
</svg>
