<?xml version="1.0" encoding="UTF-8" standalone="no"?>
<!-- Created with Inkscape (http://www.inkscape.org/) -->
<svg id="svg3075" xmlns:rdf="http://www.w3.org/1999/02/22-rdf-syntax-ns#" xmlns="http://www.w3.org/2000/svg" viewBox="0 0 116.56 64.25" version="1.1" xmlns:cc="http://creativecommons.org/ns#" xmlns:dc="http://purl.org/dc/elements/1.1/">
 <metadata id="metadata3080">
  <rdf:RDF>
   <cc:Work rdf:about="">
    <dc:format>image/svg+xml</dc:format>
    <dc:type rdf:resource="http://purl.org/dc/dcmitype/StillImage"/>
    <dc:title/>
   </cc:Work>
  </rdf:RDF>
 </metadata>
 <g id="layer1" transform="translate(-276,-714.53125)">
  <path id="Polygon12" stroke-linejoin="miter" d="m299.69,715.15h23.062c11.531,0-17.297,21,11.531,21s0-21,11.531-21h23.062v21c0,10.5,23.062-15.75,23.062,10.5s-23.062,0-23.062,10.5v21h-23.062c-11.531,0,17.297-21-11.531-21s0,21-11.531,21h-23.062v-21c0-10.5-23.062,15.75-23.062-10.5s23.062,0,23.062-10.5v-21" fill-rule="evenodd" stroke="#FFF" stroke-linecap="butt" stroke-dasharray="none" stroke-width="1.25000011999999990" fill="#067a6b"/>
  <g id="text2994" style="letter-spacing:0px;word-spacing:0px;" font-weight="normal" font-size="12px" font-style="normal" font-stretch="normal" line-height="125%" font-variant="normal" font-family="Arial" fill="#FFF">
   <path id="path3013" d="m321.9,747.81,1.0723-0.0937c0.0508,0.42969,0.16894,0.78223,0.35449,1.0576,0.18554,0.27539,0.47363,0.49805,0.86426,0.66797,0.39062,0.16992,0.83007,0.25488,1.3184,0.25488,0.43359,0,0.81641-0.0644,1.1484-0.19336,0.33203-0.12891,0.5791-0.30566,0.74121-0.53027s0.24316-0.46973,0.24317-0.73536c-0.00001-0.26952-0.0781-0.50488-0.23438-0.70605-0.15625-0.20117-0.41407-0.37011-0.77344-0.50684-0.23047-0.0898-0.74023-0.22948-1.5293-0.41894-0.78907-0.18945-1.3418-0.36816-1.6582-0.53613-0.41015-0.21484-0.71582-0.48144-0.91699-0.79981-0.20117-0.31835-0.30176-0.6748-0.30176-1.0693,0-0.43358,0.12305-0.83886,0.36915-1.2158,0.24609-0.37694,0.60546-0.66307,1.0781-0.85839,0.47265-0.19531,0.99804-0.29296,1.5762-0.29297,0.63672,0.00001,1.1982,0.10255,1.6846,0.30761,0.48632,0.20509,0.86035,0.50685,1.1221,0.90528,0.26171,0.39844,0.40234,0.84961,0.42188,1.3535l-1.0898,0.082c-0.0586-0.54296-0.25684-0.95311-0.59472-1.2305-0.3379-0.27734-0.83692-0.41601-1.4971-0.41602-0.68751,0.00001-1.1885,0.12598-1.5029,0.37793-0.31446,0.25196-0.47168,0.55567-0.47168,0.91113,0,0.3086,0.11132,0.56251,0.33398,0.76172,0.21875,0.19923,0.79004,0.40333,1.7139,0.61231,0.92382,0.20899,1.5576,0.3916,1.9014,0.54785,0.49999,0.23047,0.86913,0.52246,1.1074,0.87597,0.23827,0.35352,0.35741,0.76075,0.35742,1.2217-0.00001,0.45704-0.13087,0.8877-0.39258,1.292-0.26172,0.40429-0.6377,0.71875-1.1279,0.94336-0.49024,0.22461-1.042,0.33691-1.6553,0.33691-0.77735,0-1.4287-0.11328-1.9541-0.33984-0.52539-0.22657-0.9375-0.56739-1.2363-1.0225-0.29883-0.45508-0.45606-0.96973-0.47168-1.544z"/>
   <path id="path3015" d="m331.8,750.57-2.2793-8.5898,1.166,0,1.3066,5.6309c0.14063,0.58985,0.26172,1.1758,0.36328,1.7578,0.21875-0.91796,0.34766-1.4473,0.38672-1.5879l1.6348-5.8008h1.3711l1.2305,4.3477c0.30859,1.0781,0.53124,2.0918,0.66797,3.041,0.10937-0.54296,0.25194-1.166,0.42773-1.8691l1.3477-5.5195h1.1426l-2.3555,8.5898h-1.0957l-1.8106-6.5449c-0.15235-0.54686-0.24219-0.8828-0.26953-1.0078-0.0899,0.39454-0.17384,0.73048-0.25195,1.0078l-1.8223,6.5449z"/>
   <path id="path3017" d="m347.75,747.56,1.1367,0.28711c-0.23829,0.93359-0.667,1.6455-1.2861,2.1357-0.61915,0.49023-1.376,0.73535-2.2705,0.73535-0.92578,0-1.6787-0.18848-2.2588-0.56543-0.58008-0.37695-1.0215-0.92285-1.3242-1.6377-0.30273-0.71484-0.4541-1.4824-0.4541-2.3027,0-0.89453,0.1709-1.6748,0.5127-2.3408,0.34179-0.66601,0.82812-1.1719,1.459-1.5176,0.63086-0.34569,1.3252-0.51854,2.083-0.51855,0.85937,0.00001,1.582,0.21876,2.168,0.65625,0.58593,0.43751,0.99413,1.0527,1.2246,1.8457l-1.1191,0.26367c-0.19923-0.62499-0.48829-1.0801-0.86719-1.3652-0.37891-0.28515-0.85548-0.42773-1.4297-0.42774-0.66016,0.00001-1.2119,0.15821-1.6553,0.47461-0.44336,0.31642-0.75489,0.74122-0.93457,1.2744-0.17969,0.53321-0.26954,1.083-0.26953,1.6494-0.00001,0.73047,0.10644,1.3682,0.31933,1.9131,0.21289,0.54492,0.54394,0.95215,0.99317,1.2217,0.44921,0.26953,0.93554,0.40429,1.459,0.40429,0.63671,0,1.1758-0.18359,1.6172-0.55078,0.4414-0.36718,0.74023-0.9121,0.89648-1.6348z"/>
  </g>
 </g>
</svg>
