<?xml version="1.0" encoding="UTF-8" standalone="no"?>
<!-- Created with Inkscape (http://www.inkscape.org/) -->
<svg id="svg3033" xmlns:rdf="http://www.w3.org/1999/02/22-rdf-syntax-ns#" xmlns="http://www.w3.org/2000/svg" viewBox="0 0 232.40665 303.8754" height="100%" width="100%" version="1.1" xmlns:cc="http://creativecommons.org/ns#" xmlns:dc="http://purl.org/dc/elements/1.1/">
 <metadata id="metadata3038">
  <rdf:RDF>
   <cc:Work rdf:about="">
    <dc:format>image/svg+xml</dc:format>
    <dc:type rdf:resource="http://purl.org/dc/dcmitype/StillImage"/>
    <dc:title/>
   </cc:Work>
  </rdf:RDF>
 </metadata>
 <g id="text4170" style="letter-spacing:0px;word-spacing:0px;" line-height="125%" transform="translate(-52.221255,-49.483933)" font-family="Lucida Sans Unicode" font-size="40px" font-style="normal" font-stretch="normal" font-variant="normal" font-weight="normal" fill="#067a6b">
  <path id="path3123" d="m100.88,148.42,0-28.906,4.0234,0,14.551,22.324,0-22.324,3.5156,0,0,28.906-4.0039,0-14.57-22.324,0,22.324z"/>
  <path id="path3125" d="m146.07,147.74c-2.5782,0.78125-4.7852,1.1719-6.6211,1.1719-3.138,0-5.6901-1.0384-7.6562-3.1152-1.9662-2.0768-2.9492-4.7689-2.9492-8.0762,0-3.2161,0.86914-5.8528,2.6074-7.9102,1.7383-2.0573,3.9616-3.0859,6.6699-3.0859,2.5651,0.00002,4.5475,0.91473,5.9473,2.7441,1.3997,1.8294,2.0996,4.4238,2.0996,7.7832l-0.0195,1.1719h-13.379c0.55989,5.0391,3.0273,7.5586,7.4024,7.5586,1.6016,0,3.5677-0.42969,5.8984-1.2891zm-13.125-12.207,9.3555,0c-0.00001-3.9453-1.4714-5.918-4.4141-5.918-2.9557,0.00002-4.6029,1.9727-4.9414,5.918z"/>
  <path id="path3127" d="m166.05,148.42,0-3.9844c-2.0443,2.9818-4.5248,4.4727-7.4414,4.4727-1.849,0-3.3203-0.58269-4.4141-1.748-1.0938-1.1654-1.6406-2.7376-1.6406-4.7168v-15.234h3.8477v13.984c-0.00001,1.5886,0.23111,2.7181,0.69336,3.3887,0.46223,0.67058,1.2337,1.0059,2.3144,1.0059,2.3437,0.00001,4.5573-1.543,6.6406-4.6289v-13.75h3.8477v21.211z"/>
  <path id="path3129" d="m177.63,148.42,0-21.211,3.8476,0,0,3.9844c1.5234-2.9687,3.737-4.4531,6.6406-4.4531,0.39061,0.00002,0.80076,0.0326,1.2305,0.0977v3.5938c-0.66408-0.22133-1.25-0.33201-1.7578-0.33203-2.4349,0.00002-4.4727,1.4453-6.1133,4.3359v13.984z"/>
  <path id="path3131" d="m202.48,148.91c-3.112,0-5.5762-0.9961-7.3926-2.9883s-2.7246-4.694-2.7246-8.1055c0-3.4114,0.9082-6.11,2.7246-8.0957,1.8164-1.9856,4.2806-2.9785,7.3926-2.9785,3.112,0.00002,5.5762,0.99286,7.3926,2.9785,1.8164,1.9857,2.7246,4.6843,2.7246,8.0957-0.00002,3.4115-0.90822,6.1133-2.7246,8.1055s-4.2806,2.9883-7.3926,2.9883zm0-2.8906c1.914,0,3.3984-0.71614,4.4531-2.1484s1.582-3.4505,1.582-6.0547c-0.00002-2.6042-0.52736-4.6191-1.582-6.0449-1.0547-1.4258-2.5391-2.1386-4.4531-2.1387-1.9141,0.00002-3.3952,0.71291-4.4434,2.1387s-1.5723,3.4408-1.5723,6.0449c-0.00001,2.6042,0.52408,4.6224,1.5723,6.0547s2.5293,2.1484,4.4434,2.1484z"/>
  <path id="path3133" d="m218.65,148.42,0-21.211,3.8477,0,0,3.9844c2.0312-2.9687,4.5182-4.4531,7.4609-4.4531,1.849,0.00002,3.317,0.5827,4.4043,1.748,1.0872,1.1654,1.6308,2.7311,1.6309,4.6973v15.234h-3.8477v-13.984c-0.00001-1.5755-0.23113-2.6986-0.69335-3.3691-0.46226-0.67055-1.2272-1.0058-2.2949-1.0059-2.3568,0.00002-4.5768,1.543-6.6602,4.6289v13.73z"/>
 </g>
 <rect id="rect4205" stroke-linejoin="round" stroke-dasharray="none" stroke-dashoffset="0" height="247.2" width="230.63" stroke="#000" stroke-miterlimit="4" y="0.90089" x="0.90266" stroke-width="1.6058" fill="none"/>
 <g id="text3870" style="letter-spacing:0px;word-spacing:0px;" font-family="sans-serif" font-size="40px" line-height="125%" font-style="normal" font-weight="normal" fill="#067a6b">
  <path id="path3875" style="" d="m67.368,179.89,0-28.633,5.7031,0,6.7773,20.273c0.62498,1.888,1.0807,3.3008,1.3672,4.2383,0.3255-1.0417,0.83332-2.5716,1.5234-4.5898l6.8555-19.922h5.0977v28.633h-3.6523v-23.965l-8.3203,23.965h-3.418l-8.2812-24.375v24.375z"/>
  <path id="path3877" style="" d="m100.41,155.3,0-4.043,3.5156,0,0,4.043zm0,24.59,0-20.742,3.5156,0,0,20.742z"/>
  <path id="path3879" style="" d="m109.3,179.89,0-20.742,3.1641,0,0,2.9492c1.5234-2.2786,3.724-3.418,6.6016-3.418,1.25,0.00002,2.3991,0.22463,3.4473,0.67383,1.0482,0.44924,1.8327,1.0384,2.3535,1.7676,0.52081,0.72919,0.8854,1.5951,1.0938,2.5977,0.13019,0.65106,0.19529,1.7904,0.19531,3.418v12.754h-3.5156v-12.617c-0.00002-1.4323-0.13674-2.5032-0.41016-3.2129-0.27345-0.70962-0.75848-1.276-1.4551-1.6992-0.69663-0.42316-1.5137-0.63475-2.4512-0.63477-1.4974,0.00002-2.7897,0.47528-3.877,1.4258-1.0872,0.95054-1.6309,2.7539-1.6309,5.4102v11.328z"/>
  <path id="path3881" style="" d="m145.77,173.21,3.6328,0.44922c-0.57294,2.1224-1.6341,3.7695-3.1836,4.9414s-3.5286,1.7578-5.9375,1.7578c-3.0339,0-5.4394-0.93425-7.2168-2.8027-1.7774-1.8685-2.666-4.4889-2.666-7.8613,0-3.4896,0.89844-6.1979,2.6953-8.125s4.1276-2.8906,6.9922-2.8906c2.7734,0.00002,5.039,0.94403,6.7969,2.832,1.7578,1.888,2.6367,4.5443,2.6367,7.9688-0.00002,0.20834-0.007,0.52084-0.0195,0.9375h-15.469c0.13021,2.2786,0.77474,4.0234,1.9336,5.2344,1.1588,1.211,2.6042,1.8164,4.3359,1.8164,1.289,0,2.3893-0.33854,3.3008-1.0156,0.91144-0.67708,1.6341-1.7578,2.168-3.2422zm-11.543-5.6836,11.582,0c-0.15627-1.7448-0.59898-3.0534-1.3281-3.9258-1.1198-1.3542-2.5716-2.0312-4.3555-2.0312-1.6146,0.00002-2.972,0.54039-4.0723,1.6211s-1.709,2.526-1.8262,4.3359z"/>
  <path id="path3883" style="" d="m153.79,179.89,0-20.742,3.1641,0,0,3.1445c0.80729-1.4713,1.5527-2.4414,2.2363-2.9102,0.68359-0.46873,1.4355-0.7031,2.2559-0.70312,1.1849,0.00002,2.3893,0.37762,3.6133,1.1328l-1.2109,3.2617c-0.85938-0.5078-1.7188-0.7617-2.5781-0.76172-0.76824,0.00002-1.4583,0.23114-2.0703,0.69336-0.61199,0.46226-1.0482,1.1035-1.3086,1.9238-0.39063,1.25-0.58594,2.6172-0.58594,4.1016v10.859z"/>
 </g>
</svg>
