<?xml version="1.0" encoding="UTF-8" standalone="no"?>
<!-- Created with Inkscape (http://www.inkscape.org/) -->
<svg id="svg3755" xmlns:rdf="http://www.w3.org/1999/02/22-rdf-syntax-ns#" xmlns="http://www.w3.org/2000/svg" viewBox="0 0 401 401" version="1.1" xmlns:cc="http://creativecommons.org/ns#" xmlns:xlink="http://www.w3.org/1999/xlink" xmlns:dc="http://purl.org/dc/elements/1.1/">
 <defs id="defs3757">
  <linearGradient id="linearGradient4361" y2="131.85" gradientUnits="userSpaceOnUse" x2="110.15" y1="77.07" x1="55.549">
   <stop id="stop9517" stop-color="#1184a7" offset="0"/>
   <stop id="stop9519" stop-color="#366994" offset="1"/>
  </linearGradient>
  <linearGradient id="linearGradient4363" y2="168.1" gradientUnits="userSpaceOnUse" x2="147.78" y1="111.92" x1="89.137">
   <stop id="stop11303" stop-color="#871481" offset="0"/>
   <stop id="stop11305" stop-color="#620e5d" offset="1"/>
  </linearGradient>
 </defs>
 <metadata id="metadata3760">
  <rdf:RDF>
   <cc:Work rdf:about="">
    <dc:format>image/svg+xml</dc:format>
    <dc:type rdf:resource="http://purl.org/dc/dcmitype/StillImage"/>
    <dc:title/>
   </cc:Work>
  </rdf:RDF>
 </metadata>
 <g id="layer1" transform="translate(-225.21875,-280.4375)">
  <g id="g4354">
   <g id="layer1-7" transform="matrix(3.2168176,0,0,3.2168176,-1278.982,-505.11833)">
    <g id="g1894" fill-rule="nonzero" transform="translate(428.423,184.256)">
     <path id="path8615" style="color:#000000;" d="M99.75,67.469c-28.032,0-26.281,12.156-26.281,12.156l0.031,12.594h26.75v3.7812h-37.375s-17.938-2.0343-17.938,26.25c-0.000002,28.284,15.656,27.281,15.656,27.281h9.3438v-13.125s-0.50365-15.656,15.406-15.656h26.531s14.906,0.24096,14.906-14.406v-24.219c0-0.000002,2.2632-14.656-27.031-14.656zm-14.75,8.469c2.6614-0.000002,4.8125,2.1511,4.8125,4.8125,0.000002,2.6614-2.1511,4.8125-4.8125,4.8125-2.6614,0.000002-4.8125-2.1511-4.8125-4.8125-0.000002-2.6614,2.1511-4.8125,4.8125-4.8125z" fill="url(#linearGradient4361)"/>
     <path id="path8620" style="color:#000000;" d="m100.55,177.31c28.032,0,26.281-12.156,26.281-12.156l-0.0312-12.594h-26.75v-3.7812h37.375s17.938,2.0343,17.938-26.25c0.00001-28.284-15.656-27.281-15.656-27.281h-9.3438v13.125s0.50366,15.656-15.406,15.656h-26.531s-14.906-0.24096-14.906,14.406v24.219s-2.2632,14.656,27.031,14.656zm14.75-8.4688c-2.6614,0-4.8125-2.1511-4.8125-4.8125s2.1511-4.8125,4.8125-4.8125,4.8125,2.1511,4.8125,4.8125c0.00001,2.6614-2.1511,4.8125-4.8125,4.8125z" fill="url(#linearGradient4363)"/>
    </g>
   </g>
  </g>
  <g id="flowRoot4365" style="letter-spacing:0px;word-spacing:0px;" font-weight="normal" transform="translate(225.21875,284.4375)" font-stretch="normal" line-height="125%" font-size="40px" font-variant="normal" font-family="Arial" font-style="normal" fill="#FFF">
   <path id="path4382" style="" d="m100.24,167.27,0-28.633,10.801,0c1.901,0.00003,3.3528,0.0912,4.3555,0.27343,1.4062,0.23441,2.5846,0.68037,3.5352,1.3379,0.9505,0.65758,1.7155,1.5788,2.2949,2.7637s0.86911,2.487,0.86914,3.9062c-0.00003,2.4349-0.77477,4.4955-2.3242,6.1816-1.5495,1.6862-4.349,2.5293-8.3984,2.5293h-7.3438v11.641zm3.7891-15.02,7.4023,0c2.4479,0.00001,4.1862-0.45572,5.2148-1.3672,1.0286-0.91144,1.543-2.194,1.543-3.8477-0.00002-1.1979-0.30276-2.2233-0.90821-3.0762-0.60549-0.85284-1.403-1.416-2.3926-1.6894-0.63804-0.16925-1.8164-0.25388-3.5352-0.25391h-7.3242z"/>
   <path id="path4384" style="" d="m126.36,175.25-0.39063-3.3008c0.76823,0.20833,1.4388,0.31249,2.0117,0.3125,0.78125-0.00001,1.4062-0.13021,1.875-0.39063,0.46875-0.26042,0.85286-0.625,1.1524-1.0938,0.22134-0.35156,0.57942-1.224,1.0742-2.6172,0.0651-0.19532,0.16927-0.48177,0.3125-0.85938l-7.8711-20.781h3.7891l4.3164,12.012c0.55989,1.5234,1.0612,3.125,1.5039,4.8047,0.40363-1.6146,0.8854-3.1901,1.4453-4.7266l4.4336-12.09h3.5156l-7.8906,21.094c-0.84636,2.2786-1.5039,3.8476-1.9726,4.707-0.62501,1.1588-1.3412,2.0085-2.1484,2.5488-0.8073,0.54036-1.7708,0.81054-2.8906,0.81055-0.67708-0.00001-1.4323-0.14324-2.2656-0.42969z"/>
   <path id="path4386" style="" d="m154.19,164.12,0.50781,3.1055c-0.98959,0.20833-1.875,0.3125-2.6562,0.3125-1.276,0-2.2656-0.20183-2.9688-0.60547-0.70313-0.40365-1.1979-0.93425-1.4844-1.5918-0.28646-0.65755-0.42969-2.041-0.42969-4.1504v-11.934h-2.5781v-2.7344h2.5781v-5.1367l3.4961-2.1094v7.2461h3.5352v2.7344h-3.5352v12.129c0,1.0026,0.0618,1.6471,0.18555,1.9336,0.12369,0.28646,0.32551,0.51432,0.60547,0.68359,0.27994,0.16927,0.68033,0.25391,1.2012,0.25391,0.39062,0,0.90494-0.0456,1.543-0.13672z"/>
   <path id="path4388" style="" d="m157.61,167.27,0-28.633,3.5156,0,0,10.273c1.6406-1.901,3.7109-2.8515,6.2109-2.8516,1.5364,0.00002,2.8711,0.30276,4.0039,0.9082,1.1328,0.60549,1.9433,1.4421,2.4316,2.5098,0.48826,1.0677,0.7324,2.6172,0.73242,4.6484v13.145h-3.5156v-13.145c-0.00001-1.7578-0.38087-3.0371-1.1426-3.8379-0.76174-0.80077-1.8392-1.2012-3.2324-1.2012-1.0417,0.00001-2.0215,0.2702-2.9394,0.81054-0.91797,0.54038-1.5723,1.2728-1.9629,2.1973-0.39063,0.92449-0.58594,2.2005-0.58594,3.8281v11.348z"/>
   <path id="path4390" style="" d="m178.56,156.9c0-3.8411,1.0677-6.6862,3.2031-8.5352,1.7838-1.5364,3.9583-2.3047,6.5234-2.3047,2.8516,0.00002,5.1823,0.93427,6.9922,2.8027,1.8099,1.8685,2.7148,4.4499,2.7148,7.7441-0.00002,2.6693-0.40041,4.7689-1.2012,6.2988-0.8008,1.53-1.9662,2.7181-3.4961,3.5645-1.53,0.84635-3.1999,1.2695-5.0098,1.2695-2.9036,0-5.2506-0.93099-7.041-2.793s-2.6856-4.5443-2.6856-8.0469zm3.6133,0c0,2.6562,0.57942,4.6452,1.7383,5.9668,1.1588,1.3216,2.6172,1.9824,4.375,1.9824,1.7448,0.00001,3.1966-0.66406,4.3555-1.9922,1.1588-1.3281,1.7383-3.3529,1.7383-6.0742-0.00001-2.5651-0.5827-4.5084-1.748-5.8301-1.1654-1.3216-2.614-1.9824-4.3457-1.9824-1.7578,0.00002-3.2162,0.65757-4.375,1.9726-1.1589,1.3151-1.7383,3.3008-1.7383,5.957z"/>
   <path id="path4392" style="" d="m202.14,167.27,0-20.742,3.1641,0,0,2.9492c1.5234-2.2786,3.724-3.418,6.6016-3.418,1.25,0.00002,2.3991,0.22463,3.4473,0.67383,1.0482,0.44924,1.8327,1.0384,2.3535,1.7676,0.52082,0.72918,0.8854,1.5951,1.0938,2.5976,0.13019,0.65106,0.1953,1.7904,0.19532,3.418v12.754h-3.5156v-12.617c-0.00001-1.4323-0.13673-2.5032-0.41015-3.2129-0.27346-0.70962-0.75848-1.276-1.4551-1.6992-0.69663-0.42316-1.5137-0.63475-2.4512-0.63476-1.4974,0.00001-2.7897,0.47527-3.877,1.4258-1.0872,0.95053-1.6309,2.7539-1.6309,5.4102v11.328z"/>
  </g>
  <g id="flowRoot4373" style="letter-spacing:0px;word-spacing:0px;" font-weight="normal" transform="translate(275.21875,366.4375)" font-stretch="normal" line-height="125%" font-size="40px" font-variant="normal" font-family="Arial" font-style="normal" fill="#FFF">
   <path id="path4395" style="" d="m120.67,157.23,3.7891,0.95703c-0.7943,3.112-2.2233,5.485-4.2871,7.1191s-4.5866,2.4512-7.5684,2.4512c-3.086,0-5.5957-0.62825-7.5293-1.8848-1.9336-1.2565-3.405-3.0762-4.4141-5.459s-1.5137-4.9414-1.5137-7.6758c-0.000001-2.9818,0.56966-5.5827,1.709-7.8027s2.7604-3.9062,4.8633-5.0586c2.1029-1.1523,4.4173-1.7285,6.9434-1.7285,2.8646,0.00002,5.2734,0.72919,7.2266,2.1875,1.9531,1.4584,3.3138,3.5091,4.082,6.1523l-3.7305,0.87891c-0.66409-2.0833-1.6276-3.6002-2.8906-4.5508-1.263-0.95049-2.8516-1.4258-4.7656-1.4258-2.2005,0.00003-4.0397,0.52737-5.5176,1.582-1.4779,1.0547-2.5163,2.4707-3.1152,4.248-0.59897,1.7774-0.89845,3.61-0.89844,5.498-0.00001,2.4349,0.35481,4.5606,1.0644,6.377,0.70963,1.8164,1.8131,3.1738,3.3106,4.0723,1.4974,0.89844,3.1185,1.3477,4.8633,1.3476,2.1224,0.00001,3.9192-0.61197,5.3906-1.8359,1.4713-1.224,2.4674-3.0404,2.9883-5.4492z"/>
   <path id="path4397" style="" d="m127.39,156.9c-0.00001-3.8411,1.0677-6.6862,3.2031-8.5352,1.7838-1.5364,3.9583-2.3047,6.5234-2.3047,2.8516,0.00002,5.1823,0.93427,6.9922,2.8027,1.8099,1.8685,2.7148,4.4499,2.7148,7.7441-0.00002,2.6693-0.40041,4.7689-1.2012,6.2988-0.8008,1.53-1.9662,2.7181-3.4961,3.5645-1.53,0.84635-3.1999,1.2695-5.0098,1.2695-2.9037,0-5.2507-0.93099-7.041-2.793-1.7904-1.862-2.6856-4.5443-2.6855-8.0469zm3.6133,0c-0.00001,2.6562,0.57942,4.6452,1.7383,5.9668,1.1588,1.3216,2.6172,1.9824,4.375,1.9824,1.7448,0.00001,3.1966-0.66406,4.3555-1.9922,1.1588-1.3281,1.7383-3.3529,1.7383-6.0742-0.00002-2.5651-0.5827-4.5084-1.748-5.8301-1.1654-1.3216-2.6139-1.9824-4.3457-1.9824-1.7578,0.00002-3.2162,0.65757-4.375,1.9726-1.1589,1.3151-1.7383,3.3008-1.7383,5.957z"/>
   <path id="path4399" style="" d="m150.96,167.27,0-20.742,3.1641,0,0,2.9492c1.5234-2.2786,3.724-3.418,6.6016-3.418,1.25,0.00002,2.3991,0.22463,3.4473,0.67383,1.0482,0.44924,1.8327,1.0384,2.3535,1.7676,0.52081,0.72918,0.8854,1.5951,1.0938,2.5976,0.13019,0.65106,0.19529,1.7904,0.19531,3.418v12.754h-3.5156v-12.617c-0.00002-1.4323-0.13674-2.5032-0.41016-3.2129-0.27345-0.70962-0.75848-1.276-1.4551-1.6992-0.69662-0.42316-1.5137-0.63475-2.4512-0.63476-1.4974,0.00001-2.7897,0.47527-3.877,1.4258-1.0872,0.95053-1.6309,2.7539-1.6309,5.4102v11.328z"/>
   <path id="path4401" style="" d="m173.23,167.27,0-20.742,3.1641,0,0,2.9492c1.5234-2.2786,3.724-3.418,6.6016-3.418,1.25,0.00002,2.3991,0.22463,3.4473,0.67383,1.0482,0.44924,1.8327,1.0384,2.3535,1.7676,0.52082,0.72918,0.8854,1.5951,1.0938,2.5976,0.13019,0.65106,0.1953,1.7904,0.19532,3.418v12.754h-3.5156v-12.617c-0.00001-1.4323-0.13673-2.5032-0.41015-3.2129-0.27346-0.70962-0.75848-1.276-1.4551-1.6992-0.69663-0.42316-1.5137-0.63475-2.4512-0.63476-1.4974,0.00001-2.7897,0.47527-3.877,1.4258-1.0872,0.95053-1.6309,2.7539-1.6309,5.4102v11.328z"/>
   <path id="path4403" style="" d="m209.7,160.59,3.6328,0.44922c-0.57293,2.1224-1.6341,3.7695-3.1836,4.9414s-3.5287,1.7578-5.9375,1.7578c-3.0339,0-5.4395-0.93425-7.2168-2.8027-1.7773-1.8685-2.666-4.4889-2.666-7.8613,0-3.4896,0.89843-6.1979,2.6953-8.125s4.1276-2.8906,6.9922-2.8906c2.7734,0.00002,5.039,0.94403,6.7969,2.832,1.7578,1.888,2.6367,4.5443,2.6367,7.9688-0.00002,0.20835-0.007,0.52085-0.0195,0.9375h-15.469c0.1302,2.2787,0.77473,4.0234,1.9336,5.2344,1.1588,1.2109,2.6042,1.8164,4.3359,1.8164,1.289,0.00001,2.3893-0.33853,3.3008-1.0156,0.91145-0.67708,1.6341-1.7578,2.168-3.2422zm-11.543-5.6836,11.582,0c-0.15626-1.7448-0.59897-3.0534-1.3281-3.9258-1.1198-1.3542-2.5716-2.0312-4.3555-2.0312-1.6146,0.00001-2.972,0.54038-4.0723,1.6211-1.1003,1.0808-1.709,2.5261-1.8262,4.3359z"/>
   <path id="path4405" style="" d="m231.3,159.67,3.457,0.44922c-0.37763,2.3828-1.3444,4.248-2.9004,5.5957s-3.4668,2.0215-5.7324,2.0215c-2.8386,0-5.1204-0.92773-6.8457-2.7832s-2.5879-4.515-2.5879-7.9785c0-2.2396,0.37109-4.1992,1.1133-5.8789,0.74219-1.6797,1.8717-2.9394,3.3887-3.7793,1.5169-0.83983,3.1673-1.2598,4.9512-1.2598,2.2526,0.00002,4.095,0.56968,5.5274,1.709,1.4323,1.1393,2.3502,2.7572,2.7539,4.8535l-3.418,0.52735c-0.32554-1.3932-0.90171-2.4414-1.7285-3.1445-0.82684-0.7031-1.8262-1.0547-2.998-1.0547-1.7708,0.00001-3.2096,0.63478-4.3164,1.9043-1.1068,1.2696-1.6602,3.278-1.6602,6.0254,0,2.7865,0.53385,4.8112,1.6016,6.0742,1.0677,1.263,2.4609,1.8945,4.1797,1.8945,1.3802,0.00001,2.5325-0.42317,3.457-1.2695,0.92447-0.84635,1.5104-2.1484,1.7578-3.9062z"/>
   <path id="path4407" style="" d="m245.44,164.12,0.50781,3.1055c-0.98959,0.20833-1.875,0.3125-2.6562,0.3125-1.276,0-2.2656-0.20183-2.9688-0.60547-0.70313-0.40365-1.1979-0.93425-1.4844-1.5918-0.28646-0.65755-0.42969-2.041-0.42969-4.1504v-11.934h-2.5781v-2.7344h2.5781v-5.1367l3.4961-2.1094v7.2461h3.5352v2.7344h-3.5352v12.129c0,1.0026,0.0618,1.6471,0.18555,1.9336,0.12369,0.28646,0.32551,0.51432,0.60547,0.68359,0.27994,0.16927,0.68033,0.25391,1.2012,0.25391,0.39062,0,0.90494-0.0456,1.543-0.13672z"/>
   <path id="path4409" style="" d="m247.55,156.9c0-3.8411,1.0677-6.6862,3.2031-8.5352,1.7838-1.5364,3.9583-2.3047,6.5234-2.3047,2.8516,0.00002,5.1823,0.93427,6.9922,2.8027,1.8099,1.8685,2.7148,4.4499,2.7148,7.7441-0.00002,2.6693-0.40041,4.7689-1.2012,6.2988-0.8008,1.53-1.9662,2.7181-3.4961,3.5645-1.53,0.84635-3.1999,1.2695-5.0098,1.2695-2.9037,0-5.2507-0.93099-7.041-2.793-1.7904-1.862-2.6856-4.5443-2.6856-8.0469zm3.6133,0c-0.00001,2.6562,0.57942,4.6452,1.7383,5.9668,1.1588,1.3216,2.6172,1.9824,4.375,1.9824,1.7448,0.00001,3.1966-0.66406,4.3555-1.9922,1.1588-1.3281,1.7383-3.3529,1.7383-6.0742-0.00002-2.5651-0.5827-4.5084-1.748-5.8301-1.1654-1.3216-2.6139-1.9824-4.3457-1.9824-1.7578,0.00002-3.2162,0.65757-4.375,1.9726-1.1589,1.3151-1.7383,3.3008-1.7383,5.957z"/>
   <path id="path4411" style="" d="m271.08,167.27,0-20.742,3.1641,0,0,3.1445c0.80729-1.4713,1.5527-2.4414,2.2363-2.9102,0.68359-0.46873,1.4355-0.70311,2.2559-0.70313,1.1849,0.00002,2.3893,0.37763,3.6133,1.1328l-1.2109,3.2617c-0.85938-0.50779-1.7188-0.7617-2.5781-0.76172-0.76824,0.00002-1.4583,0.23114-2.0703,0.69336-0.61199,0.46226-1.0482,1.1035-1.3086,1.9238-0.39063,1.25-0.58594,2.6172-0.58593,4.1016v10.859z"/>
  </g>
 </g>
</svg>
